<svg xmlns="http://www.w3.org/2000/svg" xmlns:xlink="http://www.w3.org/1999/xlink" width="672" zoomAndPan="magnify" viewBox="0 0 504 359.999987" height="480" preserveAspectRatio="xMidYMid meet" version="1.0"><defs><g/></defs><g fill="#ffffff" fill-opacity="1"><g transform="translate(64.046769, 183.817874)"><g><path d="M 4.78125 0.109375 C 3.96875 0.109375 3.234375 -0.0664062 2.578125 -0.421875 C 1.929688 -0.773438 1.421875 -1.265625 1.046875 -1.890625 C 0.679688 -2.515625 0.5 -3.21875 0.5 -4 C 0.5 -4.789062 0.6875 -5.5 1.0625 -6.125 C 1.4375 -6.75 1.945312 -7.238281 2.59375 -7.59375 C 3.25 -7.945312 3.984375 -8.125 4.796875 -8.125 C 5.453125 -8.125 6.050781 -8.007812 6.59375 -7.78125 C 7.132812 -7.550781 7.585938 -7.21875 7.953125 -6.78125 L 7 -5.875 C 6.414062 -6.5 5.703125 -6.8125 4.859375 -6.8125 C 4.304688 -6.8125 3.8125 -6.691406 3.375 -6.453125 C 2.945312 -6.210938 2.609375 -5.878906 2.359375 -5.453125 C 2.117188 -5.023438 2 -4.539062 2 -4 C 2 -3.457031 2.117188 -2.972656 2.359375 -2.546875 C 2.609375 -2.117188 2.945312 -1.785156 3.375 -1.546875 C 3.8125 -1.304688 4.304688 -1.1875 4.859375 -1.1875 C 5.703125 -1.1875 6.414062 -1.503906 7 -2.140625 L 7.953125 -1.21875 C 7.585938 -0.789062 7.128906 -0.460938 6.578125 -0.234375 C 6.035156 -0.00390625 5.4375 0.109375 4.78125 0.109375 Z M 4.78125 0.109375 "/></g></g></g><g fill="#ffffff" fill-opacity="1"><g transform="translate(72.365578, 183.817874)"><g><path d="M 3.6875 0.078125 C 3.0625 0.078125 2.5 -0.0507812 2 -0.3125 C 1.507812 -0.582031 1.125 -0.957031 0.84375 -1.4375 C 0.570312 -1.914062 0.4375 -2.453125 0.4375 -3.046875 C 0.4375 -3.648438 0.570312 -4.1875 0.84375 -4.65625 C 1.125 -5.132812 1.507812 -5.503906 2 -5.765625 C 2.5 -6.035156 3.0625 -6.171875 3.6875 -6.171875 C 4.3125 -6.171875 4.867188 -6.035156 5.359375 -5.765625 C 5.859375 -5.503906 6.242188 -5.132812 6.515625 -4.65625 C 6.796875 -4.1875 6.9375 -3.648438 6.9375 -3.046875 C 6.9375 -2.453125 6.796875 -1.914062 6.515625 -1.4375 C 6.242188 -0.957031 5.859375 -0.582031 5.359375 -0.3125 C 4.867188 -0.0507812 4.3125 0.078125 3.6875 0.078125 Z M 3.6875 -1.140625 C 4.207031 -1.140625 4.640625 -1.316406 4.984375 -1.671875 C 5.328125 -2.023438 5.5 -2.484375 5.5 -3.046875 C 5.5 -3.617188 5.328125 -4.082031 4.984375 -4.4375 C 4.640625 -4.789062 4.207031 -4.96875 3.6875 -4.96875 C 3.15625 -4.96875 2.71875 -4.789062 2.375 -4.4375 C 2.039062 -4.082031 1.875 -3.617188 1.875 -3.046875 C 1.875 -2.484375 2.039062 -2.023438 2.375 -1.671875 C 2.71875 -1.316406 3.15625 -1.140625 3.6875 -1.140625 Z M 3.6875 -1.140625 "/></g></g></g><g fill="#ffffff" fill-opacity="1"><g transform="translate(79.746087, 183.817874)"><g><path d="M 4.40625 -6.171875 C 5.175781 -6.171875 5.789062 -5.945312 6.25 -5.5 C 6.71875 -5.050781 6.953125 -4.382812 6.953125 -3.5 L 6.953125 0 L 5.53125 0 L 5.53125 -3.3125 C 5.53125 -3.851562 5.398438 -4.253906 5.140625 -4.515625 C 4.890625 -4.785156 4.535156 -4.921875 4.078125 -4.921875 C 3.546875 -4.921875 3.128906 -4.765625 2.828125 -4.453125 C 2.523438 -4.140625 2.375 -3.6875 2.375 -3.09375 L 2.375 0 L 0.9375 0 L 0.9375 -6.109375 L 2.296875 -6.109375 L 2.296875 -5.3125 C 2.535156 -5.59375 2.832031 -5.804688 3.1875 -5.953125 C 3.550781 -6.097656 3.957031 -6.171875 4.40625 -6.171875 Z M 4.40625 -6.171875 "/></g></g></g><g fill="#ffffff" fill-opacity="1"><g transform="translate(87.58431, 183.817874)"><g><path d="M 4.609375 -0.328125 C 4.441406 -0.191406 4.238281 -0.0859375 4 -0.015625 C 3.757812 0.046875 3.503906 0.078125 3.234375 0.078125 C 2.566406 0.078125 2.046875 -0.09375 1.671875 -0.4375 C 1.304688 -0.789062 1.125 -1.304688 1.125 -1.984375 L 1.125 -4.921875 L 0.125 -4.921875 L 0.125 -6.0625 L 1.125 -6.0625 L 1.125 -7.453125 L 2.5625 -7.453125 L 2.5625 -6.0625 L 4.203125 -6.0625 L 4.203125 -4.921875 L 2.5625 -4.921875 L 2.5625 -2.015625 C 2.5625 -1.710938 2.632812 -1.484375 2.78125 -1.328125 C 2.925781 -1.171875 3.132812 -1.09375 3.40625 -1.09375 C 3.726562 -1.09375 3.992188 -1.175781 4.203125 -1.34375 Z M 4.609375 -0.328125 "/></g></g></g><g fill="#ffffff" fill-opacity="1"><g transform="translate(92.436003, 183.817874)"><g><path d="M 3.265625 -6.171875 C 4.171875 -6.171875 4.859375 -5.957031 5.328125 -5.53125 C 5.804688 -5.101562 6.046875 -4.453125 6.046875 -3.578125 L 6.046875 0 L 4.703125 0 L 4.703125 -0.75 C 4.523438 -0.476562 4.273438 -0.269531 3.953125 -0.125 C 3.628906 0.0078125 3.238281 0.078125 2.78125 0.078125 C 2.320312 0.078125 1.921875 0 1.578125 -0.15625 C 1.234375 -0.3125 0.96875 -0.523438 0.78125 -0.796875 C 0.59375 -1.078125 0.5 -1.394531 0.5 -1.75 C 0.5 -2.300781 0.703125 -2.738281 1.109375 -3.0625 C 1.523438 -3.394531 2.171875 -3.5625 3.046875 -3.5625 L 4.625 -3.5625 L 4.625 -3.65625 C 4.625 -4.082031 4.492188 -4.410156 4.234375 -4.640625 C 3.984375 -4.867188 3.601562 -4.984375 3.09375 -4.984375 C 2.75 -4.984375 2.410156 -4.929688 2.078125 -4.828125 C 1.753906 -4.722656 1.476562 -4.570312 1.25 -4.375 L 0.6875 -5.421875 C 1.007812 -5.660156 1.394531 -5.84375 1.84375 -5.96875 C 2.289062 -6.101562 2.765625 -6.171875 3.265625 -6.171875 Z M 3.078125 -0.953125 C 3.429688 -0.953125 3.75 -1.035156 4.03125 -1.203125 C 4.3125 -1.367188 4.507812 -1.601562 4.625 -1.90625 L 4.625 -2.625 L 3.140625 -2.625 C 2.316406 -2.625 1.90625 -2.351562 1.90625 -1.8125 C 1.90625 -1.550781 2.007812 -1.34375 2.21875 -1.1875 C 2.425781 -1.03125 2.710938 -0.953125 3.078125 -0.953125 Z M 3.078125 -0.953125 "/></g></g></g><g fill="#ffffff" fill-opacity="1"><g transform="translate(99.3817, 183.817874)"><g><path d="M 3.734375 0.078125 C 3.109375 0.078125 2.539062 -0.0507812 2.03125 -0.3125 C 1.53125 -0.582031 1.140625 -0.957031 0.859375 -1.4375 C 0.578125 -1.914062 0.4375 -2.453125 0.4375 -3.046875 C 0.4375 -3.648438 0.578125 -4.1875 0.859375 -4.65625 C 1.140625 -5.132812 1.53125 -5.503906 2.03125 -5.765625 C 2.53125 -6.035156 3.097656 -6.171875 3.734375 -6.171875 C 4.335938 -6.171875 4.863281 -6.046875 5.3125 -5.796875 C 5.769531 -5.554688 6.113281 -5.210938 6.34375 -4.765625 L 5.25 -4.125 C 5.070312 -4.40625 4.851562 -4.613281 4.59375 -4.75 C 4.332031 -4.894531 4.046875 -4.96875 3.734375 -4.96875 C 3.191406 -4.96875 2.742188 -4.789062 2.390625 -4.4375 C 2.046875 -4.09375 1.875 -3.628906 1.875 -3.046875 C 1.875 -2.472656 2.046875 -2.007812 2.390625 -1.65625 C 2.742188 -1.3125 3.191406 -1.140625 3.734375 -1.140625 C 4.046875 -1.140625 4.332031 -1.207031 4.59375 -1.34375 C 4.851562 -1.488281 5.070312 -1.703125 5.25 -1.984375 L 6.34375 -1.34375 C 6.113281 -0.882812 5.769531 -0.53125 5.3125 -0.28125 C 4.851562 -0.0390625 4.328125 0.078125 3.734375 0.078125 Z M 3.734375 0.078125 "/></g></g></g><g fill="#ffffff" fill-opacity="1"><g transform="translate(106.02988, 183.817874)"><g><path d="M 4.609375 -0.328125 C 4.441406 -0.191406 4.238281 -0.0859375 4 -0.015625 C 3.757812 0.046875 3.503906 0.078125 3.234375 0.078125 C 2.566406 0.078125 2.046875 -0.09375 1.671875 -0.4375 C 1.304688 -0.789062 1.125 -1.304688 1.125 -1.984375 L 1.125 -4.921875 L 0.125 -4.921875 L 0.125 -6.0625 L 1.125 -6.0625 L 1.125 -7.453125 L 2.5625 -7.453125 L 2.5625 -6.0625 L 4.203125 -6.0625 L 4.203125 -4.921875 L 2.5625 -4.921875 L 2.5625 -2.015625 C 2.5625 -1.710938 2.632812 -1.484375 2.78125 -1.328125 C 2.925781 -1.171875 3.132812 -1.09375 3.40625 -1.09375 C 3.726562 -1.09375 3.992188 -1.175781 4.203125 -1.34375 Z M 4.609375 -0.328125 "/></g></g></g><g fill="#ffffff" fill-opacity="1"><g transform="translate(110.881573, 183.817874)"><g/></g></g><g fill="#ffffff" fill-opacity="1"><g transform="translate(114.039749, 183.817874)"><g><path d="M 6.84375 -6.109375 L 6.84375 0 L 5.484375 0 L 5.484375 -0.78125 C 5.253906 -0.5 4.96875 -0.285156 4.625 -0.140625 C 4.289062 0.00390625 3.921875 0.078125 3.515625 0.078125 C 2.703125 0.078125 2.0625 -0.144531 1.59375 -0.59375 C 1.125 -1.050781 0.890625 -1.726562 0.890625 -2.625 L 0.890625 -6.109375 L 2.328125 -6.109375 L 2.328125 -2.8125 C 2.328125 -2.257812 2.445312 -1.847656 2.6875 -1.578125 C 2.9375 -1.304688 3.289062 -1.171875 3.75 -1.171875 C 4.257812 -1.171875 4.664062 -1.328125 4.96875 -1.640625 C 5.269531 -1.960938 5.421875 -2.421875 5.421875 -3.015625 L 5.421875 -6.109375 Z M 6.84375 -6.109375 "/></g></g></g><g fill="#ffffff" fill-opacity="1"><g transform="translate(121.832197, 183.817874)"><g><path d="M 2.828125 0.078125 C 2.328125 0.078125 1.835938 0.015625 1.359375 -0.109375 C 0.890625 -0.242188 0.515625 -0.410156 0.234375 -0.609375 L 0.796875 -1.6875 C 1.066406 -1.507812 1.394531 -1.363281 1.78125 -1.25 C 2.164062 -1.144531 2.546875 -1.09375 2.921875 -1.09375 C 3.773438 -1.09375 4.203125 -1.316406 4.203125 -1.765625 C 4.203125 -1.972656 4.09375 -2.117188 3.875 -2.203125 C 3.65625 -2.285156 3.304688 -2.367188 2.828125 -2.453125 C 2.316406 -2.523438 1.90625 -2.609375 1.59375 -2.703125 C 1.28125 -2.804688 1.003906 -2.984375 0.765625 -3.234375 C 0.535156 -3.484375 0.421875 -3.828125 0.421875 -4.265625 C 0.421875 -4.847656 0.660156 -5.3125 1.140625 -5.65625 C 1.628906 -6 2.285156 -6.171875 3.109375 -6.171875 C 3.523438 -6.171875 3.941406 -6.125 4.359375 -6.03125 C 4.785156 -5.9375 5.132812 -5.8125 5.40625 -5.65625 L 4.84375 -4.5625 C 4.332031 -4.863281 3.75 -5.015625 3.09375 -5.015625 C 2.675781 -5.015625 2.359375 -4.953125 2.140625 -4.828125 C 1.921875 -4.703125 1.8125 -4.535156 1.8125 -4.328125 C 1.8125 -4.097656 1.925781 -3.9375 2.15625 -3.84375 C 2.394531 -3.75 2.757812 -3.660156 3.25 -3.578125 C 3.738281 -3.503906 4.140625 -3.414062 4.453125 -3.3125 C 4.765625 -3.21875 5.03125 -3.050781 5.25 -2.8125 C 5.476562 -2.570312 5.59375 -2.238281 5.59375 -1.8125 C 5.59375 -1.238281 5.34375 -0.78125 4.84375 -0.4375 C 4.351562 -0.09375 3.679688 0.078125 2.828125 0.078125 Z M 2.828125 0.078125 "/></g></g></g><g fill="#ffffff" fill-opacity="1"><g transform="translate(127.710988, 183.817874)"><g/></g></g><g fill="#ffffff" fill-opacity="1"><g transform="translate(130.869623, 183.810609)"><g><path d="M 3.234375 -6.0625 C 4.023438 -6.0625 4.628906 -5.863281 5.046875 -5.46875 C 5.460938 -5.082031 5.671875 -4.503906 5.671875 -3.734375 L 5.671875 0 L 4.890625 0 L 4.890625 -0.9375 C 4.710938 -0.625 4.445312 -0.378906 4.09375 -0.203125 C 3.738281 -0.0234375 3.316406 0.0625 2.828125 0.0625 C 2.148438 0.0625 1.613281 -0.0976562 1.21875 -0.421875 C 0.820312 -0.742188 0.625 -1.164062 0.625 -1.6875 C 0.625 -2.195312 0.804688 -2.609375 1.171875 -2.921875 C 1.546875 -3.234375 2.140625 -3.390625 2.953125 -3.390625 L 4.859375 -3.390625 L 4.859375 -3.765625 C 4.859375 -4.285156 4.710938 -4.679688 4.421875 -4.953125 C 4.128906 -5.222656 3.707031 -5.359375 3.15625 -5.359375 C 2.769531 -5.359375 2.398438 -5.289062 2.046875 -5.15625 C 1.703125 -5.03125 1.40625 -4.859375 1.15625 -4.640625 L 0.796875 -5.25 C 1.097656 -5.507812 1.460938 -5.707031 1.890625 -5.84375 C 2.316406 -5.988281 2.765625 -6.0625 3.234375 -6.0625 Z M 2.953125 -0.578125 C 3.410156 -0.578125 3.800781 -0.679688 4.125 -0.890625 C 4.457031 -1.109375 4.703125 -1.414062 4.859375 -1.8125 L 4.859375 -2.796875 L 2.96875 -2.796875 C 1.9375 -2.796875 1.421875 -2.4375 1.421875 -1.71875 C 1.421875 -1.363281 1.554688 -1.082031 1.828125 -0.875 C 2.097656 -0.675781 2.472656 -0.578125 2.953125 -0.578125 Z M 2.953125 -0.578125 "/></g></g></g><g fill="#ffffff" fill-opacity="1"><g transform="translate(137.620787, 183.810609)"><g><path d="M 4.296875 -0.359375 C 4.148438 -0.222656 3.960938 -0.117188 3.734375 -0.046875 C 3.503906 0.0234375 3.269531 0.0625 3.03125 0.0625 C 2.46875 0.0625 2.03125 -0.0859375 1.71875 -0.390625 C 1.414062 -0.703125 1.265625 -1.132812 1.265625 -1.6875 L 1.265625 -5.328125 L 0.1875 -5.328125 L 0.1875 -6.015625 L 1.265625 -6.015625 L 1.265625 -7.328125 L 2.078125 -7.328125 L 2.078125 -6.015625 L 3.90625 -6.015625 L 3.90625 -5.328125 L 2.078125 -5.328125 L 2.078125 -1.734375 C 2.078125 -1.378906 2.164062 -1.109375 2.34375 -0.921875 C 2.53125 -0.734375 2.789062 -0.640625 3.125 -0.640625 C 3.289062 -0.640625 3.453125 -0.664062 3.609375 -0.71875 C 3.765625 -0.769531 3.898438 -0.847656 4.015625 -0.953125 Z M 4.296875 -0.359375 "/></g></g></g><g fill="#ffffff" fill-opacity="1"><g transform="translate(142.26651, 183.810609)"><g/></g></g><g fill="#ffffff" fill-opacity="1"><g transform="translate(145.264491, 183.810609)"><g><path d="M 3.125 -7.859375 C 2.769531 -7.859375 2.503906 -7.757812 2.328125 -7.5625 C 2.148438 -7.375 2.0625 -7.09375 2.0625 -6.71875 L 2.0625 -6.015625 L 3.90625 -6.015625 L 3.90625 -5.328125 L 2.078125 -5.328125 L 2.078125 0 L 1.265625 0 L 1.265625 -5.328125 L 0.1875 -5.328125 L 0.1875 -6.015625 L 1.265625 -6.015625 L 1.265625 -6.765625 C 1.265625 -7.304688 1.421875 -7.738281 1.734375 -8.0625 C 2.054688 -8.382812 2.507812 -8.546875 3.09375 -8.546875 C 3.320312 -8.546875 3.539062 -8.507812 3.75 -8.4375 C 3.96875 -8.375 4.144531 -8.285156 4.28125 -8.171875 L 4.015625 -7.5625 C 3.773438 -7.757812 3.476562 -7.859375 3.125 -7.859375 Z M 3.125 -7.859375 "/></g></g></g><g fill="#ffffff" fill-opacity="1"><g transform="translate(149.143547, 183.810609)"><g><path d="M 3.234375 -6.0625 C 4.023438 -6.0625 4.628906 -5.863281 5.046875 -5.46875 C 5.460938 -5.082031 5.671875 -4.503906 5.671875 -3.734375 L 5.671875 0 L 4.890625 0 L 4.890625 -0.9375 C 4.710938 -0.625 4.445312 -0.378906 4.09375 -0.203125 C 3.738281 -0.0234375 3.316406 0.0625 2.828125 0.0625 C 2.148438 0.0625 1.613281 -0.0976562 1.21875 -0.421875 C 0.820312 -0.742188 0.625 -1.164062 0.625 -1.6875 C 0.625 -2.195312 0.804688 -2.609375 1.171875 -2.921875 C 1.546875 -3.234375 2.140625 -3.390625 2.953125 -3.390625 L 4.859375 -3.390625 L 4.859375 -3.765625 C 4.859375 -4.285156 4.710938 -4.679688 4.421875 -4.953125 C 4.128906 -5.222656 3.707031 -5.359375 3.15625 -5.359375 C 2.769531 -5.359375 2.398438 -5.289062 2.046875 -5.15625 C 1.703125 -5.03125 1.40625 -4.859375 1.15625 -4.640625 L 0.796875 -5.25 C 1.097656 -5.507812 1.460938 -5.707031 1.890625 -5.84375 C 2.316406 -5.988281 2.765625 -6.0625 3.234375 -6.0625 Z M 2.953125 -0.578125 C 3.410156 -0.578125 3.800781 -0.679688 4.125 -0.890625 C 4.457031 -1.109375 4.703125 -1.414062 4.859375 -1.8125 L 4.859375 -2.796875 L 2.96875 -2.796875 C 1.9375 -2.796875 1.421875 -2.4375 1.421875 -1.71875 C 1.421875 -1.363281 1.554688 -1.082031 1.828125 -0.875 C 2.097656 -0.675781 2.472656 -0.578125 2.953125 -0.578125 Z M 2.953125 -0.578125 "/></g></g></g><g fill="#ffffff" fill-opacity="1"><g transform="translate(155.894711, 183.810609)"><g><path d="M 3.625 0.0625 C 3.03125 0.0625 2.5 -0.0664062 2.03125 -0.328125 C 1.5625 -0.585938 1.191406 -0.953125 0.921875 -1.421875 C 0.660156 -1.890625 0.53125 -2.421875 0.53125 -3.015625 C 0.53125 -3.597656 0.660156 -4.117188 0.921875 -4.578125 C 1.191406 -5.046875 1.5625 -5.410156 2.03125 -5.671875 C 2.5 -5.929688 3.03125 -6.0625 3.625 -6.0625 C 4.144531 -6.0625 4.609375 -5.957031 5.015625 -5.75 C 5.421875 -5.550781 5.742188 -5.257812 5.984375 -4.875 L 5.375 -4.453125 C 5.175781 -4.753906 4.921875 -4.976562 4.609375 -5.125 C 4.304688 -5.28125 3.976562 -5.359375 3.625 -5.359375 C 3.1875 -5.359375 2.796875 -5.257812 2.453125 -5.0625 C 2.109375 -4.863281 1.835938 -4.582031 1.640625 -4.21875 C 1.441406 -3.863281 1.34375 -3.460938 1.34375 -3.015625 C 1.34375 -2.546875 1.441406 -2.132812 1.640625 -1.78125 C 1.835938 -1.425781 2.109375 -1.148438 2.453125 -0.953125 C 2.796875 -0.753906 3.1875 -0.65625 3.625 -0.65625 C 3.976562 -0.65625 4.304688 -0.726562 4.609375 -0.875 C 4.921875 -1.019531 5.175781 -1.242188 5.375 -1.546875 L 5.984375 -1.125 C 5.742188 -0.738281 5.414062 -0.441406 5 -0.234375 C 4.59375 -0.0351562 4.132812 0.0625 3.625 0.0625 Z M 3.625 0.0625 "/></g></g></g><g fill="#ffffff" fill-opacity="1"><g transform="translate(162.336921, 183.810609)"><g><path d="M 6.375 -2.75 L 1.34375 -2.75 C 1.382812 -2.125 1.617188 -1.617188 2.046875 -1.234375 C 2.484375 -0.847656 3.035156 -0.65625 3.703125 -0.65625 C 4.078125 -0.65625 4.421875 -0.722656 4.734375 -0.859375 C 5.046875 -0.992188 5.316406 -1.191406 5.546875 -1.453125 L 6 -0.921875 C 5.738281 -0.609375 5.40625 -0.363281 5 -0.1875 C 4.601562 -0.0195312 4.164062 0.0625 3.6875 0.0625 C 3.0625 0.0625 2.507812 -0.0664062 2.03125 -0.328125 C 1.5625 -0.597656 1.191406 -0.960938 0.921875 -1.421875 C 0.660156 -1.890625 0.53125 -2.421875 0.53125 -3.015625 C 0.53125 -3.597656 0.65625 -4.117188 0.90625 -4.578125 C 1.164062 -5.046875 1.515625 -5.410156 1.953125 -5.671875 C 2.398438 -5.929688 2.90625 -6.0625 3.46875 -6.0625 C 4.019531 -6.0625 4.515625 -5.929688 4.953125 -5.671875 C 5.398438 -5.410156 5.75 -5.050781 6 -4.59375 C 6.25 -4.132812 6.375 -3.609375 6.375 -3.015625 Z M 3.46875 -5.359375 C 2.882812 -5.359375 2.394531 -5.171875 2 -4.796875 C 1.613281 -4.429688 1.394531 -3.953125 1.34375 -3.359375 L 5.609375 -3.359375 C 5.554688 -3.953125 5.332031 -4.429688 4.9375 -4.796875 C 4.539062 -5.171875 4.050781 -5.359375 3.46875 -5.359375 Z M 3.46875 -5.359375 "/></g></g></g><g fill="#ffffff" fill-opacity="1"><g transform="translate(169.24828, 183.810609)"><g><path d="M 4.234375 -6.0625 C 4.796875 -6.0625 5.304688 -5.929688 5.765625 -5.671875 C 6.222656 -5.421875 6.582031 -5.0625 6.84375 -4.59375 C 7.101562 -4.132812 7.234375 -3.609375 7.234375 -3.015625 C 7.234375 -2.410156 7.101562 -1.875 6.84375 -1.40625 C 6.582031 -0.945312 6.222656 -0.585938 5.765625 -0.328125 C 5.304688 -0.0664062 4.796875 0.0625 4.234375 0.0625 C 3.734375 0.0625 3.28125 -0.0390625 2.875 -0.25 C 2.476562 -0.46875 2.15625 -0.78125 1.90625 -1.1875 L 1.90625 0 L 1.125 0 L 1.125 -8.484375 L 1.9375 -8.484375 L 1.9375 -4.875 C 2.195312 -5.257812 2.519531 -5.550781 2.90625 -5.75 C 3.300781 -5.957031 3.742188 -6.0625 4.234375 -6.0625 Z M 4.171875 -0.65625 C 4.585938 -0.65625 4.96875 -0.753906 5.3125 -0.953125 C 5.65625 -1.148438 5.925781 -1.425781 6.125 -1.78125 C 6.320312 -2.144531 6.421875 -2.554688 6.421875 -3.015625 C 6.421875 -3.460938 6.320312 -3.863281 6.125 -4.21875 C 5.925781 -4.582031 5.65625 -4.863281 5.3125 -5.0625 C 4.96875 -5.257812 4.585938 -5.359375 4.171875 -5.359375 C 3.742188 -5.359375 3.359375 -5.257812 3.015625 -5.0625 C 2.679688 -4.863281 2.414062 -4.582031 2.21875 -4.21875 C 2.03125 -3.863281 1.9375 -3.460938 1.9375 -3.015625 C 1.9375 -2.554688 2.03125 -2.144531 2.21875 -1.78125 C 2.414062 -1.425781 2.679688 -1.148438 3.015625 -0.953125 C 3.359375 -0.753906 3.742188 -0.65625 4.171875 -0.65625 Z M 4.171875 -0.65625 "/></g></g></g><g fill="#ffffff" fill-opacity="1"><g transform="translate(177.006405, 183.810609)"><g><path d="M 3.59375 0.0625 C 3.007812 0.0625 2.484375 -0.0664062 2.015625 -0.328125 C 1.554688 -0.597656 1.191406 -0.960938 0.921875 -1.421875 C 0.660156 -1.890625 0.53125 -2.421875 0.53125 -3.015625 C 0.53125 -3.597656 0.660156 -4.117188 0.921875 -4.578125 C 1.191406 -5.046875 1.554688 -5.410156 2.015625 -5.671875 C 2.484375 -5.929688 3.007812 -6.0625 3.59375 -6.0625 C 4.164062 -6.0625 4.6875 -5.929688 5.15625 -5.671875 C 5.625 -5.410156 5.988281 -5.046875 6.25 -4.578125 C 6.507812 -4.117188 6.640625 -3.597656 6.640625 -3.015625 C 6.640625 -2.421875 6.507812 -1.890625 6.25 -1.421875 C 5.988281 -0.960938 5.625 -0.597656 5.15625 -0.328125 C 4.6875 -0.0664062 4.164062 0.0625 3.59375 0.0625 Z M 3.59375 -0.65625 C 4.019531 -0.65625 4.398438 -0.753906 4.734375 -0.953125 C 5.078125 -1.148438 5.34375 -1.425781 5.53125 -1.78125 C 5.726562 -2.144531 5.828125 -2.554688 5.828125 -3.015625 C 5.828125 -3.460938 5.726562 -3.863281 5.53125 -4.21875 C 5.34375 -4.582031 5.078125 -4.863281 4.734375 -5.0625 C 4.398438 -5.257812 4.019531 -5.359375 3.59375 -5.359375 C 3.164062 -5.359375 2.78125 -5.257812 2.4375 -5.0625 C 2.101562 -4.863281 1.835938 -4.582031 1.640625 -4.21875 C 1.441406 -3.863281 1.34375 -3.460938 1.34375 -3.015625 C 1.34375 -2.554688 1.441406 -2.144531 1.640625 -1.78125 C 1.835938 -1.425781 2.101562 -1.148438 2.4375 -0.953125 C 2.78125 -0.753906 3.164062 -0.65625 3.59375 -0.65625 Z M 3.59375 -0.65625 "/></g></g></g><g fill="#ffffff" fill-opacity="1"><g transform="translate(184.180945, 183.810609)"><g><path d="M 3.59375 0.0625 C 3.007812 0.0625 2.484375 -0.0664062 2.015625 -0.328125 C 1.554688 -0.597656 1.191406 -0.960938 0.921875 -1.421875 C 0.660156 -1.890625 0.53125 -2.421875 0.53125 -3.015625 C 0.53125 -3.597656 0.660156 -4.117188 0.921875 -4.578125 C 1.191406 -5.046875 1.554688 -5.410156 2.015625 -5.671875 C 2.484375 -5.929688 3.007812 -6.0625 3.59375 -6.0625 C 4.164062 -6.0625 4.6875 -5.929688 5.15625 -5.671875 C 5.625 -5.410156 5.988281 -5.046875 6.25 -4.578125 C 6.507812 -4.117188 6.640625 -3.597656 6.640625 -3.015625 C 6.640625 -2.421875 6.507812 -1.890625 6.25 -1.421875 C 5.988281 -0.960938 5.625 -0.597656 5.15625 -0.328125 C 4.6875 -0.0664062 4.164062 0.0625 3.59375 0.0625 Z M 3.59375 -0.65625 C 4.019531 -0.65625 4.398438 -0.753906 4.734375 -0.953125 C 5.078125 -1.148438 5.34375 -1.425781 5.53125 -1.78125 C 5.726562 -2.144531 5.828125 -2.554688 5.828125 -3.015625 C 5.828125 -3.460938 5.726562 -3.863281 5.53125 -4.21875 C 5.34375 -4.582031 5.078125 -4.863281 4.734375 -5.0625 C 4.398438 -5.257812 4.019531 -5.359375 3.59375 -5.359375 C 3.164062 -5.359375 2.78125 -5.257812 2.4375 -5.0625 C 2.101562 -4.863281 1.835938 -4.582031 1.640625 -4.21875 C 1.441406 -3.863281 1.34375 -3.460938 1.34375 -3.015625 C 1.34375 -2.554688 1.441406 -2.144531 1.640625 -1.78125 C 1.835938 -1.425781 2.101562 -1.148438 2.4375 -0.953125 C 2.78125 -0.753906 3.164062 -0.65625 3.59375 -0.65625 Z M 3.59375 -0.65625 "/></g></g></g><g fill="#ffffff" fill-opacity="1"><g transform="translate(191.355485, 183.810609)"><g><path d="M 3.359375 -3.015625 L 1.9375 -1.71875 L 1.9375 0 L 1.125 0 L 1.125 -8.484375 L 1.9375 -8.484375 L 1.9375 -2.734375 L 5.53125 -6.015625 L 6.546875 -6.015625 L 3.96875 -3.5625 L 6.78125 0 L 5.78125 0 Z M 3.359375 -3.015625 "/></g></g></g><g fill="#ffffff" fill-opacity="1"><g transform="translate(198.232521, 183.810609)"><g><path d="M 1.21875 0.0625 C 1.039062 0.0625 0.894531 0 0.78125 -0.125 C 0.664062 -0.25 0.609375 -0.398438 0.609375 -0.578125 C 0.609375 -0.742188 0.664062 -0.882812 0.78125 -1 C 0.894531 -1.125 1.039062 -1.1875 1.21875 -1.1875 C 1.382812 -1.1875 1.523438 -1.125 1.640625 -1 C 1.765625 -0.882812 1.828125 -0.742188 1.828125 -0.578125 C 1.828125 -0.398438 1.765625 -0.25 1.640625 -0.125 C 1.523438 0 1.382812 0.0625 1.21875 0.0625 Z M 1.21875 0.0625 "/></g></g></g><g fill="#ffffff" fill-opacity="1"><g transform="translate(200.658368, 183.810609)"><g><path d="M 3.625 0.0625 C 3.03125 0.0625 2.5 -0.0664062 2.03125 -0.328125 C 1.5625 -0.585938 1.191406 -0.953125 0.921875 -1.421875 C 0.660156 -1.890625 0.53125 -2.421875 0.53125 -3.015625 C 0.53125 -3.597656 0.660156 -4.117188 0.921875 -4.578125 C 1.191406 -5.046875 1.5625 -5.410156 2.03125 -5.671875 C 2.5 -5.929688 3.03125 -6.0625 3.625 -6.0625 C 4.144531 -6.0625 4.609375 -5.957031 5.015625 -5.75 C 5.421875 -5.550781 5.742188 -5.257812 5.984375 -4.875 L 5.375 -4.453125 C 5.175781 -4.753906 4.921875 -4.976562 4.609375 -5.125 C 4.304688 -5.28125 3.976562 -5.359375 3.625 -5.359375 C 3.1875 -5.359375 2.796875 -5.257812 2.453125 -5.0625 C 2.109375 -4.863281 1.835938 -4.582031 1.640625 -4.21875 C 1.441406 -3.863281 1.34375 -3.460938 1.34375 -3.015625 C 1.34375 -2.546875 1.441406 -2.132812 1.640625 -1.78125 C 1.835938 -1.425781 2.109375 -1.148438 2.453125 -0.953125 C 2.796875 -0.753906 3.1875 -0.65625 3.625 -0.65625 C 3.976562 -0.65625 4.304688 -0.726562 4.609375 -0.875 C 4.921875 -1.019531 5.175781 -1.242188 5.375 -1.546875 L 5.984375 -1.125 C 5.742188 -0.738281 5.414062 -0.441406 5 -0.234375 C 4.59375 -0.0351562 4.132812 0.0625 3.625 0.0625 Z M 3.625 0.0625 "/></g></g></g><g fill="#ffffff" fill-opacity="1"><g transform="translate(207.100577, 183.810609)"><g><path d="M 3.59375 0.0625 C 3.007812 0.0625 2.484375 -0.0664062 2.015625 -0.328125 C 1.554688 -0.597656 1.191406 -0.960938 0.921875 -1.421875 C 0.660156 -1.890625 0.53125 -2.421875 0.53125 -3.015625 C 0.53125 -3.597656 0.660156 -4.117188 0.921875 -4.578125 C 1.191406 -5.046875 1.554688 -5.410156 2.015625 -5.671875 C 2.484375 -5.929688 3.007812 -6.0625 3.59375 -6.0625 C 4.164062 -6.0625 4.6875 -5.929688 5.15625 -5.671875 C 5.625 -5.410156 5.988281 -5.046875 6.25 -4.578125 C 6.507812 -4.117188 6.640625 -3.597656 6.640625 -3.015625 C 6.640625 -2.421875 6.507812 -1.890625 6.25 -1.421875 C 5.988281 -0.960938 5.625 -0.597656 5.15625 -0.328125 C 4.6875 -0.0664062 4.164062 0.0625 3.59375 0.0625 Z M 3.59375 -0.65625 C 4.019531 -0.65625 4.398438 -0.753906 4.734375 -0.953125 C 5.078125 -1.148438 5.34375 -1.425781 5.53125 -1.78125 C 5.726562 -2.144531 5.828125 -2.554688 5.828125 -3.015625 C 5.828125 -3.460938 5.726562 -3.863281 5.53125 -4.21875 C 5.34375 -4.582031 5.078125 -4.863281 4.734375 -5.0625 C 4.398438 -5.257812 4.019531 -5.359375 3.59375 -5.359375 C 3.164062 -5.359375 2.78125 -5.257812 2.4375 -5.0625 C 2.101562 -4.863281 1.835938 -4.582031 1.640625 -4.21875 C 1.441406 -3.863281 1.34375 -3.460938 1.34375 -3.015625 C 1.34375 -2.554688 1.441406 -2.144531 1.640625 -1.78125 C 1.835938 -1.425781 2.101562 -1.148438 2.4375 -0.953125 C 2.78125 -0.753906 3.164062 -0.65625 3.59375 -0.65625 Z M 3.59375 -0.65625 "/></g></g></g><g fill="#ffffff" fill-opacity="1"><g transform="translate(214.275117, 183.810609)"><g><path d="M 8.640625 -6.0625 C 9.390625 -6.0625 9.976562 -5.84375 10.40625 -5.40625 C 10.84375 -4.976562 11.0625 -4.335938 11.0625 -3.484375 L 11.0625 0 L 10.25 0 L 10.25 -3.40625 C 10.25 -4.03125 10.097656 -4.503906 9.796875 -4.828125 C 9.492188 -5.160156 9.066406 -5.328125 8.515625 -5.328125 C 7.890625 -5.328125 7.398438 -5.132812 7.046875 -4.75 C 6.691406 -4.363281 6.515625 -3.832031 6.515625 -3.15625 L 6.515625 0 L 5.703125 0 L 5.703125 -3.40625 C 5.703125 -4.03125 5.550781 -4.503906 5.25 -4.828125 C 4.945312 -5.160156 4.515625 -5.328125 3.953125 -5.328125 C 3.335938 -5.328125 2.847656 -5.132812 2.484375 -4.75 C 2.117188 -4.363281 1.9375 -3.832031 1.9375 -3.15625 L 1.9375 0 L 1.125 0 L 1.125 -6.015625 L 1.90625 -6.015625 L 1.90625 -4.921875 C 2.125 -5.285156 2.421875 -5.566406 2.796875 -5.765625 C 3.179688 -5.960938 3.625 -6.0625 4.125 -6.0625 C 4.625 -6.0625 5.054688 -5.953125 5.421875 -5.734375 C 5.796875 -5.523438 6.070312 -5.210938 6.25 -4.796875 C 6.476562 -5.191406 6.796875 -5.5 7.203125 -5.71875 C 7.617188 -5.945312 8.097656 -6.0625 8.640625 -6.0625 Z M 8.640625 -6.0625 "/></g></g></g><g fill="#ffffff" fill-opacity="1"><g transform="translate(226.415771, 183.810609)"><g><path d="M 3.484375 -9.625 L 4.234375 -9.625 L 0.453125 1.140625 L -0.28125 1.140625 Z M 3.484375 -9.625 "/></g></g></g><g fill="#ffffff" fill-opacity="1"><g transform="translate(230.249066, 183.810609)"><g><path d="M 4.78125 0.0625 C 3.988281 0.0625 3.273438 -0.109375 2.640625 -0.453125 C 2.003906 -0.804688 1.503906 -1.289062 1.140625 -1.90625 C 0.773438 -2.53125 0.59375 -3.226562 0.59375 -4 C 0.59375 -4.769531 0.773438 -5.460938 1.140625 -6.078125 C 1.503906 -6.703125 2.003906 -7.191406 2.640625 -7.546875 C 3.285156 -7.898438 4.003906 -8.078125 4.796875 -8.078125 C 5.390625 -8.078125 5.9375 -7.976562 6.4375 -7.78125 C 6.9375 -7.582031 7.363281 -7.289062 7.71875 -6.90625 L 7.1875 -6.375 C 6.5625 -7 5.769531 -7.3125 4.8125 -7.3125 C 4.175781 -7.3125 3.597656 -7.164062 3.078125 -6.875 C 2.566406 -6.59375 2.160156 -6.195312 1.859375 -5.6875 C 1.566406 -5.1875 1.421875 -4.625 1.421875 -4 C 1.421875 -3.375 1.566406 -2.8125 1.859375 -2.3125 C 2.160156 -1.8125 2.566406 -1.414062 3.078125 -1.125 C 3.597656 -0.832031 4.175781 -0.6875 4.8125 -0.6875 C 5.769531 -0.6875 6.5625 -1.003906 7.1875 -1.640625 L 7.71875 -1.109375 C 7.363281 -0.722656 6.929688 -0.429688 6.421875 -0.234375 C 5.921875 -0.0351562 5.375 0.0625 4.78125 0.0625 Z M 4.78125 0.0625 "/></g></g></g><g fill="#ffffff" fill-opacity="1"><g transform="translate(238.476341, 183.810609)"><g><path d="M 3.59375 0.0625 C 3.007812 0.0625 2.484375 -0.0664062 2.015625 -0.328125 C 1.554688 -0.597656 1.191406 -0.960938 0.921875 -1.421875 C 0.660156 -1.890625 0.53125 -2.421875 0.53125 -3.015625 C 0.53125 -3.597656 0.660156 -4.117188 0.921875 -4.578125 C 1.191406 -5.046875 1.554688 -5.410156 2.015625 -5.671875 C 2.484375 -5.929688 3.007812 -6.0625 3.59375 -6.0625 C 4.164062 -6.0625 4.6875 -5.929688 5.15625 -5.671875 C 5.625 -5.410156 5.988281 -5.046875 6.25 -4.578125 C 6.507812 -4.117188 6.640625 -3.597656 6.640625 -3.015625 C 6.640625 -2.421875 6.507812 -1.890625 6.25 -1.421875 C 5.988281 -0.960938 5.625 -0.597656 5.15625 -0.328125 C 4.6875 -0.0664062 4.164062 0.0625 3.59375 0.0625 Z M 3.59375 -0.65625 C 4.019531 -0.65625 4.398438 -0.753906 4.734375 -0.953125 C 5.078125 -1.148438 5.34375 -1.425781 5.53125 -1.78125 C 5.726562 -2.144531 5.828125 -2.554688 5.828125 -3.015625 C 5.828125 -3.460938 5.726562 -3.863281 5.53125 -4.21875 C 5.34375 -4.582031 5.078125 -4.863281 4.734375 -5.0625 C 4.398438 -5.257812 4.019531 -5.359375 3.59375 -5.359375 C 3.164062 -5.359375 2.78125 -5.257812 2.4375 -5.0625 C 2.101562 -4.863281 1.835938 -4.582031 1.640625 -4.21875 C 1.441406 -3.863281 1.34375 -3.460938 1.34375 -3.015625 C 1.34375 -2.554688 1.441406 -2.144531 1.640625 -1.78125 C 1.835938 -1.425781 2.101562 -1.148438 2.4375 -0.953125 C 2.78125 -0.753906 3.164062 -0.65625 3.59375 -0.65625 Z M 3.59375 -0.65625 "/></g></g></g><g fill="#ffffff" fill-opacity="1"><g transform="translate(245.650881, 183.810609)"><g><path d="M 8.640625 -6.0625 C 9.390625 -6.0625 9.976562 -5.84375 10.40625 -5.40625 C 10.84375 -4.976562 11.0625 -4.335938 11.0625 -3.484375 L 11.0625 0 L 10.25 0 L 10.25 -3.40625 C 10.25 -4.03125 10.097656 -4.503906 9.796875 -4.828125 C 9.492188 -5.160156 9.066406 -5.328125 8.515625 -5.328125 C 7.890625 -5.328125 7.398438 -5.132812 7.046875 -4.75 C 6.691406 -4.363281 6.515625 -3.832031 6.515625 -3.15625 L 6.515625 0 L 5.703125 0 L 5.703125 -3.40625 C 5.703125 -4.03125 5.550781 -4.503906 5.25 -4.828125 C 4.945312 -5.160156 4.515625 -5.328125 3.953125 -5.328125 C 3.335938 -5.328125 2.847656 -5.132812 2.484375 -4.75 C 2.117188 -4.363281 1.9375 -3.832031 1.9375 -3.15625 L 1.9375 0 L 1.125 0 L 1.125 -6.015625 L 1.90625 -6.015625 L 1.90625 -4.921875 C 2.125 -5.285156 2.421875 -5.566406 2.796875 -5.765625 C 3.179688 -5.960938 3.625 -6.0625 4.125 -6.0625 C 4.625 -6.0625 5.054688 -5.953125 5.421875 -5.734375 C 5.796875 -5.523438 6.070312 -5.210938 6.25 -4.796875 C 6.476562 -5.191406 6.796875 -5.5 7.203125 -5.71875 C 7.617188 -5.945312 8.097656 -6.0625 8.640625 -6.0625 Z M 8.640625 -6.0625 "/></g></g></g><g fill="#ffffff" fill-opacity="1"><g transform="translate(257.791534, 183.810609)"><g><path d="M 3.515625 0.0625 C 2.921875 0.0625 2.347656 -0.03125 1.796875 -0.21875 C 1.253906 -0.40625 0.832031 -0.65625 0.53125 -0.96875 L 0.875 -1.625 C 1.15625 -1.332031 1.535156 -1.097656 2.015625 -0.921875 C 2.503906 -0.742188 3.003906 -0.65625 3.515625 -0.65625 C 4.234375 -0.65625 4.769531 -0.785156 5.125 -1.046875 C 5.476562 -1.304688 5.65625 -1.644531 5.65625 -2.0625 C 5.65625 -2.382812 5.554688 -2.640625 5.359375 -2.828125 C 5.171875 -3.023438 4.9375 -3.175781 4.65625 -3.28125 C 4.375 -3.382812 3.984375 -3.492188 3.484375 -3.609375 C 2.878906 -3.765625 2.394531 -3.910156 2.03125 -4.046875 C 1.675781 -4.191406 1.367188 -4.410156 1.109375 -4.703125 C 0.859375 -4.992188 0.734375 -5.382812 0.734375 -5.875 C 0.734375 -6.28125 0.835938 -6.648438 1.046875 -6.984375 C 1.265625 -7.316406 1.59375 -7.582031 2.03125 -7.78125 C 2.476562 -7.976562 3.03125 -8.078125 3.6875 -8.078125 C 4.144531 -8.078125 4.59375 -8.015625 5.03125 -7.890625 C 5.46875 -7.765625 5.847656 -7.585938 6.171875 -7.359375 L 5.875 -6.6875 C 5.539062 -6.90625 5.179688 -7.070312 4.796875 -7.1875 C 4.421875 -7.300781 4.050781 -7.359375 3.6875 -7.359375 C 2.976562 -7.359375 2.445312 -7.222656 2.09375 -6.953125 C 1.738281 -6.679688 1.5625 -6.332031 1.5625 -5.90625 C 1.5625 -5.582031 1.660156 -5.320312 1.859375 -5.125 C 2.054688 -4.9375 2.300781 -4.789062 2.59375 -4.6875 C 2.882812 -4.582031 3.28125 -4.46875 3.78125 -4.34375 C 4.363281 -4.195312 4.832031 -4.050781 5.1875 -3.90625 C 5.550781 -3.769531 5.859375 -3.554688 6.109375 -3.265625 C 6.367188 -2.984375 6.5 -2.597656 6.5 -2.109375 C 6.5 -1.710938 6.390625 -1.347656 6.171875 -1.015625 C 5.953125 -0.679688 5.617188 -0.414062 5.171875 -0.21875 C 4.722656 -0.03125 4.171875 0.0625 3.515625 0.0625 Z M 3.515625 0.0625 "/></g></g></g><g fill="#ffffff" fill-opacity="1"><g transform="translate(264.828766, 183.810609)"><g><path d="M 3.515625 0.0625 C 2.921875 0.0625 2.347656 -0.03125 1.796875 -0.21875 C 1.253906 -0.40625 0.832031 -0.65625 0.53125 -0.96875 L 0.875 -1.625 C 1.15625 -1.332031 1.535156 -1.097656 2.015625 -0.921875 C 2.503906 -0.742188 3.003906 -0.65625 3.515625 -0.65625 C 4.234375 -0.65625 4.769531 -0.785156 5.125 -1.046875 C 5.476562 -1.304688 5.65625 -1.644531 5.65625 -2.0625 C 5.65625 -2.382812 5.554688 -2.640625 5.359375 -2.828125 C 5.171875 -3.023438 4.9375 -3.175781 4.65625 -3.28125 C 4.375 -3.382812 3.984375 -3.492188 3.484375 -3.609375 C 2.878906 -3.765625 2.394531 -3.910156 2.03125 -4.046875 C 1.675781 -4.191406 1.367188 -4.410156 1.109375 -4.703125 C 0.859375 -4.992188 0.734375 -5.382812 0.734375 -5.875 C 0.734375 -6.28125 0.835938 -6.648438 1.046875 -6.984375 C 1.265625 -7.316406 1.59375 -7.582031 2.03125 -7.78125 C 2.476562 -7.976562 3.03125 -8.078125 3.6875 -8.078125 C 4.144531 -8.078125 4.59375 -8.015625 5.03125 -7.890625 C 5.46875 -7.765625 5.847656 -7.585938 6.171875 -7.359375 L 5.875 -6.6875 C 5.539062 -6.90625 5.179688 -7.070312 4.796875 -7.1875 C 4.421875 -7.300781 4.050781 -7.359375 3.6875 -7.359375 C 2.976562 -7.359375 2.445312 -7.222656 2.09375 -6.953125 C 1.738281 -6.679688 1.5625 -6.332031 1.5625 -5.90625 C 1.5625 -5.582031 1.660156 -5.320312 1.859375 -5.125 C 2.054688 -4.9375 2.300781 -4.789062 2.59375 -4.6875 C 2.882812 -4.582031 3.28125 -4.46875 3.78125 -4.34375 C 4.363281 -4.195312 4.832031 -4.050781 5.1875 -3.90625 C 5.550781 -3.769531 5.859375 -3.554688 6.109375 -3.265625 C 6.367188 -2.984375 6.5 -2.597656 6.5 -2.109375 C 6.5 -1.710938 6.390625 -1.347656 6.171875 -1.015625 C 5.953125 -0.679688 5.617188 -0.414062 5.171875 -0.21875 C 4.722656 -0.03125 4.171875 0.0625 3.515625 0.0625 Z M 3.515625 0.0625 "/></g></g></g><g fill="#ffffff" fill-opacity="1"><g transform="translate(271.865998, 183.810609)"><g><path d="M 6.328125 -2.140625 L 1.859375 -2.140625 L 0.90625 0 L 0.015625 0 L 3.6875 -8 L 4.515625 -8 L 8.171875 0 L 7.28125 0 Z M 6.015625 -2.828125 L 4.09375 -7.125 L 2.171875 -2.828125 Z M 6.015625 -2.828125 "/></g></g></g><g fill="#ffffff" fill-opacity="1"><g transform="translate(280.070385, 183.810609)"><g><path d="M 4.78125 0.0625 C 3.988281 0.0625 3.273438 -0.109375 2.640625 -0.453125 C 2.003906 -0.804688 1.503906 -1.289062 1.140625 -1.90625 C 0.773438 -2.53125 0.59375 -3.226562 0.59375 -4 C 0.59375 -4.769531 0.773438 -5.460938 1.140625 -6.078125 C 1.503906 -6.703125 2.003906 -7.191406 2.640625 -7.546875 C 3.285156 -7.898438 4.003906 -8.078125 4.796875 -8.078125 C 5.390625 -8.078125 5.9375 -7.976562 6.4375 -7.78125 C 6.9375 -7.582031 7.363281 -7.289062 7.71875 -6.90625 L 7.1875 -6.375 C 6.5625 -7 5.769531 -7.3125 4.8125 -7.3125 C 4.175781 -7.3125 3.597656 -7.164062 3.078125 -6.875 C 2.566406 -6.59375 2.160156 -6.195312 1.859375 -5.6875 C 1.566406 -5.1875 1.421875 -4.625 1.421875 -4 C 1.421875 -3.375 1.566406 -2.8125 1.859375 -2.3125 C 2.160156 -1.8125 2.566406 -1.414062 3.078125 -1.125 C 3.597656 -0.832031 4.175781 -0.6875 4.8125 -0.6875 C 5.769531 -0.6875 6.5625 -1.003906 7.1875 -1.640625 L 7.71875 -1.109375 C 7.363281 -0.722656 6.929688 -0.429688 6.421875 -0.234375 C 5.921875 -0.0351562 5.375 0.0625 4.78125 0.0625 Z M 4.78125 0.0625 "/></g></g></g><g fill="#ffffff" fill-opacity="1"><g transform="translate(288.29766, 183.810609)"><g><path d="M 6.546875 -6.015625 L 6.546875 0 L 5.78125 0 L 5.78125 -1.09375 C 5.5625 -0.726562 5.265625 -0.441406 4.890625 -0.234375 C 4.515625 -0.0351562 4.085938 0.0625 3.609375 0.0625 C 2.828125 0.0625 2.207031 -0.15625 1.75 -0.59375 C 1.300781 -1.039062 1.078125 -1.6875 1.078125 -2.53125 L 1.078125 -6.015625 L 1.890625 -6.015625 L 1.890625 -2.609375 C 1.890625 -1.972656 2.046875 -1.488281 2.359375 -1.15625 C 2.671875 -0.832031 3.113281 -0.671875 3.6875 -0.671875 C 4.320312 -0.671875 4.820312 -0.863281 5.1875 -1.25 C 5.550781 -1.632812 5.734375 -2.171875 5.734375 -2.859375 L 5.734375 -6.015625 Z M 6.546875 -6.015625 "/></g></g></g><g fill="#ffffff" fill-opacity="1"><g transform="translate(295.99856, 183.810609)"><g><path d="M 1.90625 -4.84375 C 2.101562 -5.238281 2.390625 -5.539062 2.765625 -5.75 C 3.140625 -5.957031 3.601562 -6.0625 4.15625 -6.0625 L 4.15625 -5.265625 L 3.96875 -5.28125 C 3.332031 -5.28125 2.832031 -5.085938 2.46875 -4.703125 C 2.113281 -4.316406 1.9375 -3.769531 1.9375 -3.0625 L 1.9375 0 L 1.125 0 L 1.125 -6.015625 L 1.90625 -6.015625 Z M 1.90625 -4.84375 "/></g></g></g><g fill="#ffffff" fill-opacity="1"><g transform="translate(300.587058, 183.810609)"><g><path d="M 4.296875 -0.359375 C 4.148438 -0.222656 3.960938 -0.117188 3.734375 -0.046875 C 3.503906 0.0234375 3.269531 0.0625 3.03125 0.0625 C 2.46875 0.0625 2.03125 -0.0859375 1.71875 -0.390625 C 1.414062 -0.703125 1.265625 -1.132812 1.265625 -1.6875 L 1.265625 -5.328125 L 0.1875 -5.328125 L 0.1875 -6.015625 L 1.265625 -6.015625 L 1.265625 -7.328125 L 2.078125 -7.328125 L 2.078125 -6.015625 L 3.90625 -6.015625 L 3.90625 -5.328125 L 2.078125 -5.328125 L 2.078125 -1.734375 C 2.078125 -1.378906 2.164062 -1.109375 2.34375 -0.921875 C 2.53125 -0.734375 2.789062 -0.640625 3.125 -0.640625 C 3.289062 -0.640625 3.453125 -0.664062 3.609375 -0.71875 C 3.765625 -0.769531 3.898438 -0.847656 4.015625 -0.953125 Z M 4.296875 -0.359375 "/></g></g></g><g fill="#ffffff" fill-opacity="1"><g transform="translate(305.232781, 183.810609)"><g><path d="M 1.125 -6.015625 L 1.9375 -6.015625 L 1.9375 0 L 1.125 0 Z M 1.53125 -7.328125 C 1.363281 -7.328125 1.222656 -7.382812 1.109375 -7.5 C 0.992188 -7.613281 0.9375 -7.753906 0.9375 -7.921875 C 0.9375 -8.066406 0.992188 -8.195312 1.109375 -8.3125 C 1.222656 -8.425781 1.363281 -8.484375 1.53125 -8.484375 C 1.707031 -8.484375 1.847656 -8.425781 1.953125 -8.3125 C 2.066406 -8.207031 2.125 -8.078125 2.125 -7.921875 C 2.125 -7.753906 2.066406 -7.613281 1.953125 -7.5 C 1.847656 -7.382812 1.707031 -7.328125 1.53125 -7.328125 Z M 1.53125 -7.328125 "/></g></g></g><g fill="#ffffff" fill-opacity="1"><g transform="translate(308.31086, 183.810609)"><g><path d="M 4.203125 -6.0625 C 4.953125 -6.0625 5.550781 -5.84375 6 -5.40625 C 6.445312 -4.96875 6.671875 -4.328125 6.671875 -3.484375 L 6.671875 0 L 5.859375 0 L 5.859375 -3.40625 C 5.859375 -4.03125 5.703125 -4.503906 5.390625 -4.828125 C 5.078125 -5.160156 4.628906 -5.328125 4.046875 -5.328125 C 3.398438 -5.328125 2.882812 -5.132812 2.5 -4.75 C 2.125 -4.363281 1.9375 -3.832031 1.9375 -3.15625 L 1.9375 0 L 1.125 0 L 1.125 -6.015625 L 1.90625 -6.015625 L 1.90625 -4.90625 C 2.125 -5.269531 2.429688 -5.550781 2.828125 -5.75 C 3.222656 -5.957031 3.679688 -6.0625 4.203125 -6.0625 Z M 4.203125 -6.0625 "/></g></g></g><g fill="#ffffff" fill-opacity="1"><g transform="translate(316.057534, 183.810609)"><g/></g></g><g fill="#ffffff" fill-opacity="1"><g transform="translate(319.055515, 183.810609)"><g><path d="M 3.125 -7.859375 C 2.769531 -7.859375 2.503906 -7.757812 2.328125 -7.5625 C 2.148438 -7.375 2.0625 -7.09375 2.0625 -6.71875 L 2.0625 -6.015625 L 3.90625 -6.015625 L 3.90625 -5.328125 L 2.078125 -5.328125 L 2.078125 0 L 1.265625 0 L 1.265625 -5.328125 L 0.1875 -5.328125 L 0.1875 -6.015625 L 1.265625 -6.015625 L 1.265625 -6.765625 C 1.265625 -7.304688 1.421875 -7.738281 1.734375 -8.0625 C 2.054688 -8.382812 2.507812 -8.546875 3.09375 -8.546875 C 3.320312 -8.546875 3.539062 -8.507812 3.75 -8.4375 C 3.96875 -8.375 4.144531 -8.285156 4.28125 -8.171875 L 4.015625 -7.5625 C 3.773438 -7.757812 3.476562 -7.859375 3.125 -7.859375 Z M 3.125 -7.859375 "/></g></g></g><g fill="#ffffff" fill-opacity="1"><g transform="translate(322.93457, 183.810609)"><g><path d="M 3.59375 0.0625 C 3.007812 0.0625 2.484375 -0.0664062 2.015625 -0.328125 C 1.554688 -0.597656 1.191406 -0.960938 0.921875 -1.421875 C 0.660156 -1.890625 0.53125 -2.421875 0.53125 -3.015625 C 0.53125 -3.597656 0.660156 -4.117188 0.921875 -4.578125 C 1.191406 -5.046875 1.554688 -5.410156 2.015625 -5.671875 C 2.484375 -5.929688 3.007812 -6.0625 3.59375 -6.0625 C 4.164062 -6.0625 4.6875 -5.929688 5.15625 -5.671875 C 5.625 -5.410156 5.988281 -5.046875 6.25 -4.578125 C 6.507812 -4.117188 6.640625 -3.597656 6.640625 -3.015625 C 6.640625 -2.421875 6.507812 -1.890625 6.25 -1.421875 C 5.988281 -0.960938 5.625 -0.597656 5.15625 -0.328125 C 4.6875 -0.0664062 4.164062 0.0625 3.59375 0.0625 Z M 3.59375 -0.65625 C 4.019531 -0.65625 4.398438 -0.753906 4.734375 -0.953125 C 5.078125 -1.148438 5.34375 -1.425781 5.53125 -1.78125 C 5.726562 -2.144531 5.828125 -2.554688 5.828125 -3.015625 C 5.828125 -3.460938 5.726562 -3.863281 5.53125 -4.21875 C 5.34375 -4.582031 5.078125 -4.863281 4.734375 -5.0625 C 4.398438 -5.257812 4.019531 -5.359375 3.59375 -5.359375 C 3.164062 -5.359375 2.78125 -5.257812 2.4375 -5.0625 C 2.101562 -4.863281 1.835938 -4.582031 1.640625 -4.21875 C 1.441406 -3.863281 1.34375 -3.460938 1.34375 -3.015625 C 1.34375 -2.554688 1.441406 -2.144531 1.640625 -1.78125 C 1.835938 -1.425781 2.101562 -1.148438 2.4375 -0.953125 C 2.78125 -0.753906 3.164062 -0.65625 3.59375 -0.65625 Z M 3.59375 -0.65625 "/></g></g></g><g fill="#ffffff" fill-opacity="1"><g transform="translate(330.10911, 183.810609)"><g><path d="M 1.90625 -4.84375 C 2.101562 -5.238281 2.390625 -5.539062 2.765625 -5.75 C 3.140625 -5.957031 3.601562 -6.0625 4.15625 -6.0625 L 4.15625 -5.265625 L 3.96875 -5.28125 C 3.332031 -5.28125 2.832031 -5.085938 2.46875 -4.703125 C 2.113281 -4.316406 1.9375 -3.769531 1.9375 -3.0625 L 1.9375 0 L 1.125 0 L 1.125 -6.015625 L 1.90625 -6.015625 Z M 1.90625 -4.84375 "/></g></g></g><g fill="#ffffff" fill-opacity="1"><g transform="translate(334.697608, 183.810609)"><g/></g></g><g fill="#ffffff" fill-opacity="1"><g transform="translate(337.695589, 183.810609)"><g><path d="M 3.125 -7.859375 C 2.769531 -7.859375 2.503906 -7.757812 2.328125 -7.5625 C 2.148438 -7.375 2.0625 -7.09375 2.0625 -6.71875 L 2.0625 -6.015625 L 3.90625 -6.015625 L 3.90625 -5.328125 L 2.078125 -5.328125 L 2.078125 0 L 1.265625 0 L 1.265625 -5.328125 L 0.1875 -5.328125 L 0.1875 -6.015625 L 1.265625 -6.015625 L 1.265625 -6.765625 C 1.265625 -7.304688 1.421875 -7.738281 1.734375 -8.0625 C 2.054688 -8.382812 2.507812 -8.546875 3.09375 -8.546875 C 3.320312 -8.546875 3.539062 -8.507812 3.75 -8.4375 C 3.96875 -8.375 4.144531 -8.285156 4.28125 -8.171875 L 4.015625 -7.5625 C 3.773438 -7.757812 3.476562 -7.859375 3.125 -7.859375 Z M 3.125 -7.859375 "/></g></g></g><g fill="#ffffff" fill-opacity="1"><g transform="translate(341.574644, 183.810609)"><g><path d="M 6.546875 -6.015625 L 6.546875 0 L 5.78125 0 L 5.78125 -1.09375 C 5.5625 -0.726562 5.265625 -0.441406 4.890625 -0.234375 C 4.515625 -0.0351562 4.085938 0.0625 3.609375 0.0625 C 2.828125 0.0625 2.207031 -0.15625 1.75 -0.59375 C 1.300781 -1.039062 1.078125 -1.6875 1.078125 -2.53125 L 1.078125 -6.015625 L 1.890625 -6.015625 L 1.890625 -2.609375 C 1.890625 -1.972656 2.046875 -1.488281 2.359375 -1.15625 C 2.671875 -0.832031 3.113281 -0.671875 3.6875 -0.671875 C 4.320312 -0.671875 4.820312 -0.863281 5.1875 -1.25 C 5.550781 -1.632812 5.734375 -2.171875 5.734375 -2.859375 L 5.734375 -6.015625 Z M 6.546875 -6.015625 "/></g></g></g><g fill="#ffffff" fill-opacity="1"><g transform="translate(349.275544, 183.810609)"><g><path d="M 1.90625 -4.84375 C 2.101562 -5.238281 2.390625 -5.539062 2.765625 -5.75 C 3.140625 -5.957031 3.601562 -6.0625 4.15625 -6.0625 L 4.15625 -5.265625 L 3.96875 -5.28125 C 3.332031 -5.28125 2.832031 -5.085938 2.46875 -4.703125 C 2.113281 -4.316406 1.9375 -3.769531 1.9375 -3.0625 L 1.9375 0 L 1.125 0 L 1.125 -6.015625 L 1.90625 -6.015625 Z M 1.90625 -4.84375 "/></g></g></g><g fill="#ffffff" fill-opacity="1"><g transform="translate(353.864042, 183.810609)"><g><path d="M 4.296875 -0.359375 C 4.148438 -0.222656 3.960938 -0.117188 3.734375 -0.046875 C 3.503906 0.0234375 3.269531 0.0625 3.03125 0.0625 C 2.46875 0.0625 2.03125 -0.0859375 1.71875 -0.390625 C 1.414062 -0.703125 1.265625 -1.132812 1.265625 -1.6875 L 1.265625 -5.328125 L 0.1875 -5.328125 L 0.1875 -6.015625 L 1.265625 -6.015625 L 1.265625 -7.328125 L 2.078125 -7.328125 L 2.078125 -6.015625 L 3.90625 -6.015625 L 3.90625 -5.328125 L 2.078125 -5.328125 L 2.078125 -1.734375 C 2.078125 -1.378906 2.164062 -1.109375 2.34375 -0.921875 C 2.53125 -0.734375 2.789062 -0.640625 3.125 -0.640625 C 3.289062 -0.640625 3.453125 -0.664062 3.609375 -0.71875 C 3.765625 -0.769531 3.898438 -0.847656 4.015625 -0.953125 Z M 4.296875 -0.359375 "/></g></g></g><g fill="#ffffff" fill-opacity="1"><g transform="translate(358.509766, 183.810609)"><g><path d="M 4.203125 -6.0625 C 4.953125 -6.0625 5.550781 -5.84375 6 -5.40625 C 6.445312 -4.96875 6.671875 -4.328125 6.671875 -3.484375 L 6.671875 0 L 5.859375 0 L 5.859375 -3.40625 C 5.859375 -4.03125 5.703125 -4.503906 5.390625 -4.828125 C 5.078125 -5.160156 4.628906 -5.328125 4.046875 -5.328125 C 3.398438 -5.328125 2.882812 -5.132812 2.5 -4.75 C 2.125 -4.363281 1.9375 -3.832031 1.9375 -3.15625 L 1.9375 0 L 1.125 0 L 1.125 -8.484375 L 1.9375 -8.484375 L 1.9375 -4.96875 C 2.164062 -5.3125 2.472656 -5.578125 2.859375 -5.765625 C 3.242188 -5.960938 3.691406 -6.0625 4.203125 -6.0625 Z M 4.203125 -6.0625 "/></g></g></g><g fill="#ffffff" fill-opacity="1"><g transform="translate(366.25644, 183.810609)"><g><path d="M 6.375 -2.75 L 1.34375 -2.75 C 1.382812 -2.125 1.617188 -1.617188 2.046875 -1.234375 C 2.484375 -0.847656 3.035156 -0.65625 3.703125 -0.65625 C 4.078125 -0.65625 4.421875 -0.722656 4.734375 -0.859375 C 5.046875 -0.992188 5.316406 -1.191406 5.546875 -1.453125 L 6 -0.921875 C 5.738281 -0.609375 5.40625 -0.363281 5 -0.1875 C 4.601562 -0.0195312 4.164062 0.0625 3.6875 0.0625 C 3.0625 0.0625 2.507812 -0.0664062 2.03125 -0.328125 C 1.5625 -0.597656 1.191406 -0.960938 0.921875 -1.421875 C 0.660156 -1.890625 0.53125 -2.421875 0.53125 -3.015625 C 0.53125 -3.597656 0.65625 -4.117188 0.90625 -4.578125 C 1.164062 -5.046875 1.515625 -5.410156 1.953125 -5.671875 C 2.398438 -5.929688 2.90625 -6.0625 3.46875 -6.0625 C 4.019531 -6.0625 4.515625 -5.929688 4.953125 -5.671875 C 5.398438 -5.410156 5.75 -5.050781 6 -4.59375 C 6.25 -4.132812 6.375 -3.609375 6.375 -3.015625 Z M 3.46875 -5.359375 C 2.882812 -5.359375 2.394531 -5.171875 2 -4.796875 C 1.613281 -4.429688 1.394531 -3.953125 1.34375 -3.359375 L 5.609375 -3.359375 C 5.554688 -3.953125 5.332031 -4.429688 4.9375 -4.796875 C 4.539062 -5.171875 4.050781 -5.359375 3.46875 -5.359375 Z M 3.46875 -5.359375 "/></g></g></g><g fill="#ffffff" fill-opacity="1"><g transform="translate(373.167799, 183.810609)"><g><path d="M 1.90625 -4.84375 C 2.101562 -5.238281 2.390625 -5.539062 2.765625 -5.75 C 3.140625 -5.957031 3.601562 -6.0625 4.15625 -6.0625 L 4.15625 -5.265625 L 3.96875 -5.28125 C 3.332031 -5.28125 2.832031 -5.085938 2.46875 -4.703125 C 2.113281 -4.316406 1.9375 -3.769531 1.9375 -3.0625 L 1.9375 0 L 1.125 0 L 1.125 -6.015625 L 1.90625 -6.015625 Z M 1.90625 -4.84375 "/></g></g></g><g fill="#ffffff" fill-opacity="1"><g transform="translate(377.756283, 183.810609)"><g/></g></g><g fill="#ffffff" fill-opacity="1"><g transform="translate(380.754278, 183.810609)"><g><path d="M 6.625 -6.015625 L 6.625 2.21875 L 5.8125 2.21875 L 5.8125 -1.125 C 5.5625 -0.738281 5.238281 -0.441406 4.84375 -0.234375 C 4.445312 -0.0351562 4.003906 0.0625 3.515625 0.0625 C 2.953125 0.0625 2.441406 -0.0625 1.984375 -0.3125 C 1.523438 -0.570312 1.164062 -0.9375 0.90625 -1.40625 C 0.65625 -1.875 0.53125 -2.410156 0.53125 -3.015625 C 0.53125 -3.609375 0.65625 -4.132812 0.90625 -4.59375 C 1.164062 -5.0625 1.523438 -5.421875 1.984375 -5.671875 C 2.441406 -5.929688 2.953125 -6.0625 3.515625 -6.0625 C 4.023438 -6.0625 4.476562 -5.953125 4.875 -5.734375 C 5.28125 -5.523438 5.601562 -5.222656 5.84375 -4.828125 L 5.84375 -6.015625 Z M 3.59375 -0.65625 C 4.007812 -0.65625 4.382812 -0.753906 4.71875 -0.953125 C 5.0625 -1.148438 5.332031 -1.425781 5.53125 -1.78125 C 5.726562 -2.144531 5.828125 -2.554688 5.828125 -3.015625 C 5.828125 -3.460938 5.726562 -3.863281 5.53125 -4.21875 C 5.332031 -4.582031 5.0625 -4.863281 4.71875 -5.0625 C 4.382812 -5.257812 4.007812 -5.359375 3.59375 -5.359375 C 3.164062 -5.359375 2.78125 -5.257812 2.4375 -5.0625 C 2.101562 -4.863281 1.835938 -4.582031 1.640625 -4.21875 C 1.441406 -3.863281 1.34375 -3.460938 1.34375 -3.015625 C 1.34375 -2.554688 1.441406 -2.144531 1.640625 -1.78125 C 1.835938 -1.425781 2.101562 -1.148438 2.4375 -0.953125 C 2.78125 -0.753906 3.164062 -0.65625 3.59375 -0.65625 Z M 3.59375 -0.65625 "/></g></g></g><g fill="#ffffff" fill-opacity="1"><g transform="translate(388.512389, 183.810609)"><g><path d="M 6.546875 -6.015625 L 6.546875 0 L 5.78125 0 L 5.78125 -1.09375 C 5.5625 -0.726562 5.265625 -0.441406 4.890625 -0.234375 C 4.515625 -0.0351562 4.085938 0.0625 3.609375 0.0625 C 2.828125 0.0625 2.207031 -0.15625 1.75 -0.59375 C 1.300781 -1.039062 1.078125 -1.6875 1.078125 -2.53125 L 1.078125 -6.015625 L 1.890625 -6.015625 L 1.890625 -2.609375 C 1.890625 -1.972656 2.046875 -1.488281 2.359375 -1.15625 C 2.671875 -0.832031 3.113281 -0.671875 3.6875 -0.671875 C 4.320312 -0.671875 4.820312 -0.863281 5.1875 -1.25 C 5.550781 -1.632812 5.734375 -2.171875 5.734375 -2.859375 L 5.734375 -6.015625 Z M 6.546875 -6.015625 "/></g></g></g><g fill="#ffffff" fill-opacity="1"><g transform="translate(396.213289, 183.810609)"><g><path d="M 6.375 -2.75 L 1.34375 -2.75 C 1.382812 -2.125 1.617188 -1.617188 2.046875 -1.234375 C 2.484375 -0.847656 3.035156 -0.65625 3.703125 -0.65625 C 4.078125 -0.65625 4.421875 -0.722656 4.734375 -0.859375 C 5.046875 -0.992188 5.316406 -1.191406 5.546875 -1.453125 L 6 -0.921875 C 5.738281 -0.609375 5.40625 -0.363281 5 -0.1875 C 4.601562 -0.0195312 4.164062 0.0625 3.6875 0.0625 C 3.0625 0.0625 2.507812 -0.0664062 2.03125 -0.328125 C 1.5625 -0.597656 1.191406 -0.960938 0.921875 -1.421875 C 0.660156 -1.890625 0.53125 -2.421875 0.53125 -3.015625 C 0.53125 -3.597656 0.65625 -4.117188 0.90625 -4.578125 C 1.164062 -5.046875 1.515625 -5.410156 1.953125 -5.671875 C 2.398438 -5.929688 2.90625 -6.0625 3.46875 -6.0625 C 4.019531 -6.0625 4.515625 -5.929688 4.953125 -5.671875 C 5.398438 -5.410156 5.75 -5.050781 6 -4.59375 C 6.25 -4.132812 6.375 -3.609375 6.375 -3.015625 Z M 3.46875 -5.359375 C 2.882812 -5.359375 2.394531 -5.171875 2 -4.796875 C 1.613281 -4.429688 1.394531 -3.953125 1.34375 -3.359375 L 5.609375 -3.359375 C 5.554688 -3.953125 5.332031 -4.429688 4.9375 -4.796875 C 4.539062 -5.171875 4.050781 -5.359375 3.46875 -5.359375 Z M 3.46875 -5.359375 "/></g></g></g><g fill="#ffffff" fill-opacity="1"><g transform="translate(403.124649, 183.810609)"><g><path d="M 2.75 0.0625 C 2.257812 0.0625 1.789062 -0.00390625 1.34375 -0.140625 C 0.894531 -0.285156 0.546875 -0.46875 0.296875 -0.6875 L 0.65625 -1.328125 C 0.914062 -1.128906 1.234375 -0.96875 1.609375 -0.84375 C 1.992188 -0.71875 2.390625 -0.65625 2.796875 -0.65625 C 3.347656 -0.65625 3.753906 -0.738281 4.015625 -0.90625 C 4.285156 -1.082031 4.421875 -1.328125 4.421875 -1.640625 C 4.421875 -1.859375 4.347656 -2.03125 4.203125 -2.15625 C 4.054688 -2.28125 3.867188 -2.375 3.640625 -2.4375 C 3.421875 -2.507812 3.128906 -2.570312 2.765625 -2.625 C 2.273438 -2.71875 1.878906 -2.8125 1.578125 -2.90625 C 1.285156 -3 1.035156 -3.160156 0.828125 -3.390625 C 0.617188 -3.617188 0.515625 -3.9375 0.515625 -4.34375 C 0.515625 -4.84375 0.722656 -5.253906 1.140625 -5.578125 C 1.554688 -5.898438 2.140625 -6.0625 2.890625 -6.0625 C 3.285156 -6.0625 3.675781 -6.007812 4.0625 -5.90625 C 4.445312 -5.800781 4.765625 -5.664062 5.015625 -5.5 L 4.671875 -4.84375 C 4.171875 -5.1875 3.578125 -5.359375 2.890625 -5.359375 C 2.367188 -5.359375 1.976562 -5.265625 1.71875 -5.078125 C 1.457031 -4.898438 1.328125 -4.664062 1.328125 -4.375 C 1.328125 -4.144531 1.398438 -3.957031 1.546875 -3.8125 C 1.691406 -3.675781 1.875 -3.578125 2.09375 -3.515625 C 2.320312 -3.453125 2.628906 -3.382812 3.015625 -3.3125 C 3.492188 -3.21875 3.878906 -3.125 4.171875 -3.03125 C 4.460938 -2.945312 4.710938 -2.789062 4.921875 -2.5625 C 5.128906 -2.34375 5.234375 -2.039062 5.234375 -1.65625 C 5.234375 -1.132812 5.007812 -0.71875 4.5625 -0.40625 C 4.125 -0.09375 3.519531 0.0625 2.75 0.0625 Z M 2.75 0.0625 "/></g></g></g><g fill="#ffffff" fill-opacity="1"><g transform="translate(408.720108, 183.810609)"><g><path d="M 4.296875 -0.359375 C 4.148438 -0.222656 3.960938 -0.117188 3.734375 -0.046875 C 3.503906 0.0234375 3.269531 0.0625 3.03125 0.0625 C 2.46875 0.0625 2.03125 -0.0859375 1.71875 -0.390625 C 1.414062 -0.703125 1.265625 -1.132812 1.265625 -1.6875 L 1.265625 -5.328125 L 0.1875 -5.328125 L 0.1875 -6.015625 L 1.265625 -6.015625 L 1.265625 -7.328125 L 2.078125 -7.328125 L 2.078125 -6.015625 L 3.90625 -6.015625 L 3.90625 -5.328125 L 2.078125 -5.328125 L 2.078125 -1.734375 C 2.078125 -1.378906 2.164062 -1.109375 2.34375 -0.921875 C 2.53125 -0.734375 2.789062 -0.640625 3.125 -0.640625 C 3.289062 -0.640625 3.453125 -0.664062 3.609375 -0.71875 C 3.765625 -0.769531 3.898438 -0.847656 4.015625 -0.953125 Z M 4.296875 -0.359375 "/></g></g></g><g fill="#ffffff" fill-opacity="1"><g transform="translate(413.365831, 183.810609)"><g><path d="M 1.125 -6.015625 L 1.9375 -6.015625 L 1.9375 0 L 1.125 0 Z M 1.53125 -7.328125 C 1.363281 -7.328125 1.222656 -7.382812 1.109375 -7.5 C 0.992188 -7.613281 0.9375 -7.753906 0.9375 -7.921875 C 0.9375 -8.066406 0.992188 -8.195312 1.109375 -8.3125 C 1.222656 -8.425781 1.363281 -8.484375 1.53125 -8.484375 C 1.707031 -8.484375 1.847656 -8.425781 1.953125 -8.3125 C 2.066406 -8.207031 2.125 -8.078125 2.125 -7.921875 C 2.125 -7.753906 2.066406 -7.613281 1.953125 -7.5 C 1.847656 -7.382812 1.707031 -7.328125 1.53125 -7.328125 Z M 1.53125 -7.328125 "/></g></g></g><g fill="#ffffff" fill-opacity="1"><g transform="translate(416.443909, 183.810609)"><g><path d="M 3.59375 0.0625 C 3.007812 0.0625 2.484375 -0.0664062 2.015625 -0.328125 C 1.554688 -0.597656 1.191406 -0.960938 0.921875 -1.421875 C 0.660156 -1.890625 0.53125 -2.421875 0.53125 -3.015625 C 0.53125 -3.597656 0.660156 -4.117188 0.921875 -4.578125 C 1.191406 -5.046875 1.554688 -5.410156 2.015625 -5.671875 C 2.484375 -5.929688 3.007812 -6.0625 3.59375 -6.0625 C 4.164062 -6.0625 4.6875 -5.929688 5.15625 -5.671875 C 5.625 -5.410156 5.988281 -5.046875 6.25 -4.578125 C 6.507812 -4.117188 6.640625 -3.597656 6.640625 -3.015625 C 6.640625 -2.421875 6.507812 -1.890625 6.25 -1.421875 C 5.988281 -0.960938 5.625 -0.597656 5.15625 -0.328125 C 4.6875 -0.0664062 4.164062 0.0625 3.59375 0.0625 Z M 3.59375 -0.65625 C 4.019531 -0.65625 4.398438 -0.753906 4.734375 -0.953125 C 5.078125 -1.148438 5.34375 -1.425781 5.53125 -1.78125 C 5.726562 -2.144531 5.828125 -2.554688 5.828125 -3.015625 C 5.828125 -3.460938 5.726562 -3.863281 5.53125 -4.21875 C 5.34375 -4.582031 5.078125 -4.863281 4.734375 -5.0625 C 4.398438 -5.257812 4.019531 -5.359375 3.59375 -5.359375 C 3.164062 -5.359375 2.78125 -5.257812 2.4375 -5.0625 C 2.101562 -4.863281 1.835938 -4.582031 1.640625 -4.21875 C 1.441406 -3.863281 1.34375 -3.460938 1.34375 -3.015625 C 1.34375 -2.554688 1.441406 -2.144531 1.640625 -1.78125 C 1.835938 -1.425781 2.101562 -1.148438 2.4375 -0.953125 C 2.78125 -0.753906 3.164062 -0.65625 3.59375 -0.65625 Z M 3.59375 -0.65625 "/></g></g></g><g fill="#ffffff" fill-opacity="1"><g transform="translate(423.618449, 183.810609)"><g><path d="M 4.203125 -6.0625 C 4.953125 -6.0625 5.550781 -5.84375 6 -5.40625 C 6.445312 -4.96875 6.671875 -4.328125 6.671875 -3.484375 L 6.671875 0 L 5.859375 0 L 5.859375 -3.40625 C 5.859375 -4.03125 5.703125 -4.503906 5.390625 -4.828125 C 5.078125 -5.160156 4.628906 -5.328125 4.046875 -5.328125 C 3.398438 -5.328125 2.882812 -5.132812 2.5 -4.75 C 2.125 -4.363281 1.9375 -3.832031 1.9375 -3.15625 L 1.9375 0 L 1.125 0 L 1.125 -6.015625 L 1.90625 -6.015625 L 1.90625 -4.90625 C 2.125 -5.269531 2.429688 -5.550781 2.828125 -5.75 C 3.222656 -5.957031 3.679688 -6.0625 4.203125 -6.0625 Z M 4.203125 -6.0625 "/></g></g></g><g fill="#ffffff" fill-opacity="1"><g transform="translate(431.365123, 183.810609)"><g><path d="M 2.75 0.0625 C 2.257812 0.0625 1.789062 -0.00390625 1.34375 -0.140625 C 0.894531 -0.285156 0.546875 -0.46875 0.296875 -0.6875 L 0.65625 -1.328125 C 0.914062 -1.128906 1.234375 -0.96875 1.609375 -0.84375 C 1.992188 -0.71875 2.390625 -0.65625 2.796875 -0.65625 C 3.347656 -0.65625 3.753906 -0.738281 4.015625 -0.90625 C 4.285156 -1.082031 4.421875 -1.328125 4.421875 -1.640625 C 4.421875 -1.859375 4.347656 -2.03125 4.203125 -2.15625 C 4.054688 -2.28125 3.867188 -2.375 3.640625 -2.4375 C 3.421875 -2.507812 3.128906 -2.570312 2.765625 -2.625 C 2.273438 -2.71875 1.878906 -2.8125 1.578125 -2.90625 C 1.285156 -3 1.035156 -3.160156 0.828125 -3.390625 C 0.617188 -3.617188 0.515625 -3.9375 0.515625 -4.34375 C 0.515625 -4.84375 0.722656 -5.253906 1.140625 -5.578125 C 1.554688 -5.898438 2.140625 -6.0625 2.890625 -6.0625 C 3.285156 -6.0625 3.675781 -6.007812 4.0625 -5.90625 C 4.445312 -5.800781 4.765625 -5.664062 5.015625 -5.5 L 4.671875 -4.84375 C 4.171875 -5.1875 3.578125 -5.359375 2.890625 -5.359375 C 2.367188 -5.359375 1.976562 -5.265625 1.71875 -5.078125 C 1.457031 -4.898438 1.328125 -4.664062 1.328125 -4.375 C 1.328125 -4.144531 1.398438 -3.957031 1.546875 -3.8125 C 1.691406 -3.675781 1.875 -3.578125 2.09375 -3.515625 C 2.320312 -3.453125 2.628906 -3.382812 3.015625 -3.3125 C 3.492188 -3.21875 3.878906 -3.125 4.171875 -3.03125 C 4.460938 -2.945312 4.710938 -2.789062 4.921875 -2.5625 C 5.128906 -2.34375 5.234375 -2.039062 5.234375 -1.65625 C 5.234375 -1.132812 5.007812 -0.71875 4.5625 -0.40625 C 4.125 -0.09375 3.519531 0.0625 2.75 0.0625 Z M 2.75 0.0625 "/></g></g></g><g fill="#ffffff" fill-opacity="1"><g transform="translate(436.958486, 183.810609)"><g/></g></g></svg>