<svg width="915.001" height="72.003" viewBox="0 0 915.001 72.003" xmlns="http://www.w3.org/2000/svg"><g id="svgGroup" stroke-linecap="round" fill-rule="evenodd" font-size="9pt" stroke="#ffffff" stroke-width="0.6mm" fill="#ffffff" style="stroke:#ffffff;stroke-width:0.6mm;fill:#ffffff"><path d="M 548.8 71.001 L 544.6 71.001 A 957.832 957.832 0 0 0 543.469 51.376 Q 542.019 30.245 539.877 15.577 A 221.752 221.752 0 0 0 538.5 7.201 Q 531.4 22.301 526.1 35.651 Q 520.8 49.001 516.6 63.001 L 513.4 63.001 Q 509.3 49.601 504.3 36.951 A 356.691 356.691 0 0 0 500.128 26.88 Q 497.736 21.331 494.885 15.148 A 679.959 679.959 0 0 0 491.3 7.501 A 287.743 287.743 0 0 0 489.463 19.983 Q 486.875 40.401 485.3 71.001 L 481.1 71.001 A 883.532 883.532 0 0 1 482.431 49.376 Q 484.168 26.121 486.861 10.119 A 199.798 199.798 0 0 1 488.6 1.001 L 492.6 1.001 A 663.575 663.575 0 0 1 498.45 13.133 Q 501.263 19.129 503.587 24.454 A 331.783 331.783 0 0 1 506.2 30.601 A 284.391 284.391 0 0 1 512.848 48.301 A 244.817 244.817 0 0 1 515 55.001 A 275.07 275.07 0 0 1 521.394 36.664 A 311.197 311.197 0 0 1 523.9 30.401 Q 529.1 17.801 537.3 1.001 L 541.3 1.001 Q 545.254 18.758 547.586 51.064 A 948.254 948.254 0 0 1 548.8 71.001 Z M 172.9 71.001 L 170.9 71.001 L 170.9 63.601 A 25.197 25.197 0 0 0 170.86 62.137 Q 170.781 60.779 170.542 59.867 A 5.602 5.602 0 0 0 170.4 59.401 A 6.246 6.246 0 0 0 170.008 58.543 Q 169.366 57.355 168 55.701 L 128 6.801 L 128 71.001 L 123.8 71.001 L 123.8 1.001 L 127.3 1.001 Q 128.1 1.001 128.45 1.251 Q 128.714 1.44 129.177 1.884 A 22.246 22.246 0 0 1 129.5 2.201 L 170.9 52.801 L 170.9 1.001 L 175.1 1.001 L 175.1 57.301 Q 175.1 59.433 175.195 62.084 A 211.298 211.298 0 0 0 175.3 64.601 A 194.586 194.586 0 0 1 175.378 65.736 Q 175.5 67.598 175.5 68.301 A 4.051 4.051 0 0 1 175.376 69.354 Q 175.007 70.721 173.545 70.954 A 4.109 4.109 0 0 1 172.9 71.001 Z M 682.1 71.001 L 680.1 71.001 L 680.1 63.601 A 25.197 25.197 0 0 0 680.06 62.137 Q 679.981 60.779 679.742 59.867 A 5.602 5.602 0 0 0 679.6 59.401 A 6.246 6.246 0 0 0 679.208 58.543 Q 678.566 57.355 677.2 55.701 L 637.2 6.801 L 637.2 71.001 L 633 71.001 L 633 1.001 L 636.5 1.001 Q 637.3 1.001 637.65 1.251 Q 637.914 1.44 638.377 1.884 A 22.246 22.246 0 0 1 638.7 2.201 L 680.1 52.801 L 680.1 1.001 L 684.3 1.001 L 684.3 57.301 Q 684.3 59.433 684.395 62.084 A 211.298 211.298 0 0 0 684.5 64.601 A 194.586 194.586 0 0 1 684.578 65.736 Q 684.7 67.598 684.7 68.301 A 4.051 4.051 0 0 1 684.576 69.354 Q 684.207 70.721 682.745 70.954 A 4.109 4.109 0 0 1 682.1 71.001 Z M 219.5 34.701 L 244.5 34.701 L 244.5 63.701 A 22.524 22.524 0 0 1 239.642 67.44 Q 237.393 68.747 234.661 69.748 A 35.753 35.753 0 0 1 234.65 69.751 Q 228.5 72.001 221.8 72.001 A 37.528 37.528 0 0 1 213.473 71.119 A 28.694 28.694 0 0 1 204.9 67.701 A 27.309 27.309 0 0 1 194.688 56.605 A 33.436 33.436 0 0 1 194.05 55.301 A 38.915 38.915 0 0 1 191.124 45.82 Q 190.355 41.555 190.304 36.696 A 66.042 66.042 0 0 1 190.3 36.001 A 56.111 56.111 0 0 1 191.005 26.872 Q 191.926 21.289 194.05 16.701 A 29.186 29.186 0 0 1 199.684 8.422 A 26.568 26.568 0 0 1 204.9 4.301 A 29.324 29.324 0 0 1 215.382 0.51 A 39.032 39.032 0 0 1 221.8 0.001 Q 229.1 0.001 234.85 2.001 A 27.189 27.189 0 0 1 239.916 4.338 A 21.021 21.021 0 0 1 244.2 7.701 Q 243.9 8.701 243.15 9.401 A 3.525 3.525 0 0 1 242.709 9.755 Q 242.455 9.926 242.206 10.012 A 1.533 1.533 0 0 1 241.7 10.101 A 2.657 2.657 0 0 1 240.821 9.941 Q 240.194 9.722 239.5 9.201 A 24.047 24.047 0 0 0 230.776 5.069 Q 227.407 4.202 223.455 4.039 A 45.117 45.117 0 0 0 221.6 4.001 A 32.482 32.482 0 0 0 213.377 4.982 A 22.206 22.206 0 0 0 201.65 12.301 Q 195.998 19.051 194.942 30.497 A 59.985 59.985 0 0 0 194.7 36.001 A 54.355 54.355 0 0 0 195.418 45.139 Q 196.252 50.018 198.052 53.915 A 25.512 25.512 0 0 0 201.7 59.701 A 22.77 22.77 0 0 0 215.474 67.475 A 33.978 33.978 0 0 0 221.6 68.001 Q 227.5 68.001 232.35 66.301 A 22.575 22.575 0 0 0 236.886 64.15 A 18.128 18.128 0 0 0 240.3 61.401 L 240.3 38.701 L 222.6 38.701 A 5.041 5.041 0 0 1 221.745 38.634 Q 221.292 38.556 220.939 38.387 A 2.033 2.033 0 0 1 220.2 37.801 Q 219.597 37.026 219.513 35.287 A 12.203 12.203 0 0 1 219.5 34.701 Z M 728.7 34.701 L 753.7 34.701 L 753.7 63.701 A 22.524 22.524 0 0 1 748.842 67.44 Q 746.593 68.747 743.861 69.748 A 35.753 35.753 0 0 1 743.85 69.751 Q 737.7 72.001 731 72.001 A 37.528 37.528 0 0 1 722.673 71.119 A 28.694 28.694 0 0 1 714.1 67.701 A 27.309 27.309 0 0 1 703.888 56.605 A 33.436 33.436 0 0 1 703.25 55.301 A 38.915 38.915 0 0 1 700.324 45.82 Q 699.555 41.555 699.504 36.696 A 66.042 66.042 0 0 1 699.5 36.001 A 56.111 56.111 0 0 1 700.205 26.872 Q 701.126 21.289 703.25 16.701 A 29.186 29.186 0 0 1 708.884 8.422 A 26.568 26.568 0 0 1 714.1 4.301 A 29.324 29.324 0 0 1 724.582 0.51 A 39.032 39.032 0 0 1 731 0.001 Q 738.3 0.001 744.05 2.001 A 27.189 27.189 0 0 1 749.116 4.338 A 21.021 21.021 0 0 1 753.4 7.701 Q 753.1 8.701 752.35 9.401 A 3.525 3.525 0 0 1 751.909 9.755 Q 751.655 9.926 751.406 10.012 A 1.533 1.533 0 0 1 750.9 10.101 A 2.657 2.657 0 0 1 750.021 9.941 Q 749.394 9.722 748.7 9.201 A 24.047 24.047 0 0 0 739.976 5.069 Q 736.607 4.202 732.655 4.039 A 45.117 45.117 0 0 0 730.8 4.001 A 32.482 32.482 0 0 0 722.577 4.982 A 22.206 22.206 0 0 0 710.85 12.301 Q 705.198 19.051 704.142 30.497 A 59.985 59.985 0 0 0 703.9 36.001 A 54.355 54.355 0 0 0 704.618 45.139 Q 705.452 50.018 707.252 53.915 A 25.512 25.512 0 0 0 710.9 59.701 A 22.77 22.77 0 0 0 724.674 67.475 A 33.978 33.978 0 0 0 730.8 68.001 Q 736.7 68.001 741.55 66.301 A 22.575 22.575 0 0 0 746.086 64.15 A 18.128 18.128 0 0 0 749.5 61.401 L 749.5 38.701 L 731.8 38.701 A 5.041 5.041 0 0 1 730.945 38.634 Q 730.492 38.556 730.139 38.387 A 2.033 2.033 0 0 1 729.4 37.801 Q 728.797 37.026 728.713 35.287 A 12.203 12.203 0 0 1 728.7 34.701 Z M 344.921 70.877 A 38.14 38.14 0 0 0 354.3 72.001 A 49.73 49.73 0 0 0 358.511 71.83 Q 367.551 71.061 373.15 66.851 A 16.477 16.477 0 0 0 378.88 59.349 A 18.934 18.934 0 0 0 380 52.701 A 18.755 18.755 0 0 0 379.682 49.168 A 13.561 13.561 0 0 0 377.55 43.951 A 13.469 13.469 0 0 0 376.03 42.13 Q 374.764 40.85 373.042 39.723 A 27.327 27.327 0 0 0 369.65 37.851 A 34.755 34.755 0 0 0 369.407 37.739 Q 365.721 36.049 360.242 34.558 A 118.947 118.947 0 0 0 354.7 33.201 A 93.695 93.695 0 0 1 351.072 32.296 Q 343.01 30.105 339.3 27.301 A 13.673 13.673 0 0 1 339.219 27.24 Q 336.681 25.293 335.601 22.568 A 12.017 12.017 0 0 1 334.8 18.101 A 18.173 18.173 0 0 1 335.116 14.625 A 11.792 11.792 0 0 1 339.55 7.251 A 15.087 15.087 0 0 1 343.666 5.053 Q 347.698 3.601 353.5 3.601 A 39.164 39.164 0 0 1 355.538 3.653 Q 361.584 3.968 365.75 6.201 Q 370.6 8.801 373.2 14.301 Q 373.9 15.801 374.6 16.401 A 2.419 2.419 0 0 0 375.388 16.856 A 2.767 2.767 0 0 0 376.3 17.001 Q 377.6 17.001 378.2 16.001 Q 376 8.601 369.35 4.301 A 25.859 25.859 0 0 0 361.533 0.938 A 32.97 32.97 0 0 0 353.5 0.001 A 43.219 43.219 0 0 0 350.58 0.097 Q 341.928 0.683 336.6 4.851 A 15.477 15.477 0 0 0 331.384 11.971 A 18.277 18.277 0 0 0 330.4 18.101 A 15.454 15.454 0 0 0 331.86 24.874 A 15.58 15.58 0 0 0 336.15 30.201 Q 340.148 33.469 347.119 35.577 A 67.216 67.216 0 0 0 353.8 37.201 A 129.341 129.341 0 0 1 354.55 37.348 Q 359.772 38.387 363.511 39.591 A 38.785 38.785 0 0 1 366.8 40.801 A 23.801 23.801 0 0 1 368.475 41.589 Q 369.984 42.375 371.151 43.291 A 11.344 11.344 0 0 1 373.55 45.801 A 10.403 10.403 0 0 1 373.588 45.858 Q 374.783 47.631 375.268 49.923 A 16.304 16.304 0 0 1 375.6 53.301 A 16.031 16.031 0 0 1 375.598 53.568 Q 375.533 57.441 373.591 60.407 A 14.09 14.09 0 0 1 369.9 64.151 A 18.687 18.687 0 0 1 366.566 66.028 Q 361.606 68.201 354.5 68.201 Q 349.877 68.201 346.027 67.293 A 24.359 24.359 0 0 1 338.5 64.201 A 20.639 20.639 0 0 1 337.181 63.292 A 14.917 14.917 0 0 1 331.1 53.501 Q 329.043 53.578 328.553 55.046 A 3.33 3.33 0 0 0 328.4 56.101 Q 328.4 60.301 331.95 63.951 Q 335.5 67.601 341.45 69.801 A 34.096 34.096 0 0 0 344.921 70.877 Z M 879.921 70.877 A 38.14 38.14 0 0 0 889.3 72.001 A 49.73 49.73 0 0 0 893.511 71.83 Q 902.551 71.061 908.15 66.851 A 16.477 16.477 0 0 0 913.88 59.349 A 18.934 18.934 0 0 0 915 52.701 A 18.755 18.755 0 0 0 914.682 49.168 A 13.561 13.561 0 0 0 912.55 43.951 A 13.469 13.469 0 0 0 911.03 42.13 Q 909.764 40.85 908.042 39.723 A 27.327 27.327 0 0 0 904.65 37.851 A 34.755 34.755 0 0 0 904.407 37.739 Q 900.721 36.049 895.242 34.558 A 118.947 118.947 0 0 0 889.7 33.201 A 93.695 93.695 0 0 1 886.072 32.296 Q 878.01 30.105 874.3 27.301 A 13.673 13.673 0 0 1 874.219 27.24 Q 871.681 25.293 870.601 22.568 A 12.017 12.017 0 0 1 869.8 18.101 A 18.173 18.173 0 0 1 870.116 14.625 A 11.792 11.792 0 0 1 874.55 7.251 A 15.087 15.087 0 0 1 878.666 5.053 Q 882.698 3.601 888.5 3.601 A 39.164 39.164 0 0 1 890.538 3.653 Q 896.584 3.968 900.75 6.201 Q 905.6 8.801 908.2 14.301 Q 908.9 15.801 909.6 16.401 A 2.419 2.419 0 0 0 910.388 16.856 A 2.767 2.767 0 0 0 911.3 17.001 Q 912.6 17.001 913.2 16.001 Q 911 8.601 904.35 4.301 A 25.859 25.859 0 0 0 896.533 0.938 A 32.97 32.97 0 0 0 888.5 0.001 A 43.219 43.219 0 0 0 885.58 0.097 Q 876.928 0.683 871.6 4.851 A 15.477 15.477 0 0 0 866.384 11.971 A 18.277 18.277 0 0 0 865.4 18.101 A 15.454 15.454 0 0 0 866.86 24.874 A 15.58 15.58 0 0 0 871.15 30.201 Q 875.148 33.469 882.119 35.577 A 67.216 67.216 0 0 0 888.8 37.201 A 129.341 129.341 0 0 1 889.55 37.348 Q 894.772 38.387 898.511 39.591 A 38.785 38.785 0 0 1 901.8 40.801 A 23.801 23.801 0 0 1 903.475 41.589 Q 904.984 42.375 906.151 43.291 A 11.344 11.344 0 0 1 908.55 45.801 A 10.403 10.403 0 0 1 908.588 45.858 Q 909.783 47.631 910.268 49.923 A 16.304 16.304 0 0 1 910.6 53.301 A 16.031 16.031 0 0 1 910.598 53.568 Q 910.533 57.441 908.591 60.407 A 14.09 14.09 0 0 1 904.9 64.151 A 18.687 18.687 0 0 1 901.566 66.028 Q 896.606 68.201 889.5 68.201 Q 884.877 68.201 881.027 67.293 A 24.359 24.359 0 0 1 873.5 64.201 A 20.639 20.639 0 0 1 872.181 63.292 A 14.917 14.917 0 0 1 866.1 53.501 Q 864.043 53.578 863.553 55.046 A 3.33 3.33 0 0 0 863.4 56.101 Q 863.4 60.301 866.95 63.951 Q 870.5 67.601 876.45 69.801 A 34.096 34.096 0 0 0 879.921 70.877 Z M 53 45.901 L 53 1.001 L 57.2 1.001 L 57.2 45.901 A 36.311 36.311 0 0 0 57.694 52.1 Q 58.278 55.467 59.555 58.117 A 16.227 16.227 0 0 0 62.8 62.701 A 17.256 17.256 0 0 0 69.237 66.603 Q 73.747 68.201 80 68.201 Q 91.6 68.201 97.15 62.801 Q 102.7 57.401 102.7 45.901 L 102.7 1.001 L 106.9 1.001 L 106.9 45.901 A 43.764 43.764 0 0 1 106.335 53.192 Q 105.681 57.055 104.27 60.096 A 18.631 18.631 0 0 1 100.4 65.651 A 19.715 19.715 0 0 1 93.296 69.992 Q 87.819 72.001 80 72.001 A 46.258 46.258 0 0 1 72.487 71.433 Q 68.534 70.781 65.399 69.381 A 19.707 19.707 0 0 1 59.65 65.551 A 20.076 20.076 0 0 1 54.666 57.424 Q 53.574 54.202 53.198 50.255 A 45.915 45.915 0 0 1 53 45.901 Z M 259.3 45.901 L 259.3 1.001 L 263.5 1.001 L 263.5 45.901 A 36.311 36.311 0 0 0 263.994 52.1 Q 264.578 55.467 265.855 58.117 A 16.227 16.227 0 0 0 269.1 62.701 A 17.256 17.256 0 0 0 275.537 66.603 Q 280.047 68.201 286.3 68.201 Q 297.9 68.201 303.45 62.801 Q 309 57.401 309 45.901 L 309 1.001 L 313.2 1.001 L 313.2 45.901 A 43.764 43.764 0 0 1 312.635 53.192 Q 311.981 57.055 310.57 60.096 A 18.631 18.631 0 0 1 306.7 65.651 A 19.715 19.715 0 0 1 299.596 69.992 Q 294.119 72.001 286.3 72.001 A 46.258 46.258 0 0 1 278.787 71.433 Q 274.834 70.781 271.699 69.381 A 19.707 19.707 0 0 1 265.95 65.551 A 20.076 20.076 0 0 1 260.966 57.424 Q 259.874 54.202 259.498 50.255 A 45.915 45.915 0 0 1 259.3 45.901 Z M 794.3 45.901 L 794.3 1.001 L 798.5 1.001 L 798.5 45.901 A 36.311 36.311 0 0 0 798.994 52.1 Q 799.578 55.467 800.855 58.117 A 16.227 16.227 0 0 0 804.1 62.701 A 17.256 17.256 0 0 0 810.537 66.603 Q 815.047 68.201 821.3 68.201 Q 832.9 68.201 838.45 62.801 Q 844 57.401 844 45.901 L 844 1.001 L 848.2 1.001 L 848.2 45.901 A 43.764 43.764 0 0 1 847.635 53.192 Q 846.981 57.055 845.57 60.096 A 18.631 18.631 0 0 1 841.7 65.651 A 19.715 19.715 0 0 1 834.596 69.992 Q 829.119 72.001 821.3 72.001 A 46.258 46.258 0 0 1 813.787 71.433 Q 809.834 70.781 806.699 69.381 A 19.707 19.707 0 0 1 800.95 65.551 A 20.076 20.076 0 0 1 795.966 57.424 Q 794.874 54.202 794.498 50.255 A 45.915 45.915 0 0 1 794.3 45.901 Z M 41.2 5.001 L 4.2 5.001 L 4.2 33.701 L 36.9 33.701 L 36.9 37.701 L 4.2 37.701 L 4.2 71.001 L 0 71.001 L 0 1.001 L 41.2 1.001 L 41.2 5.001 Z M 462.7 50.701 L 422.3 50.701 Q 419.5 59.801 417.4 71.001 L 413 71.001 A 213.041 213.041 0 0 1 419.619 45.01 A 183.179 183.179 0 0 1 423.55 34.101 Q 430.3 17.101 440.8 1.001 L 444.3 1.001 Q 454.7 17.001 461.45 33.951 A 190.318 190.318 0 0 1 469.337 58.747 A 226.748 226.748 0 0 1 472 71.001 L 467.6 71.001 Q 465.5 59.801 462.7 50.701 Z M 581.565 70.952 A 35.015 35.015 0 0 0 590.4 72.001 A 36.623 36.623 0 0 0 597.514 71.345 A 24.079 24.079 0 0 0 612.15 62.701 Q 617.301 56.271 618.891 45.778 A 68.103 68.103 0 0 0 619.6 35.601 A 68.975 68.975 0 0 0 619.211 28.083 Q 618.642 22.905 617.243 18.653 A 29.424 29.424 0 0 0 612.15 9.101 Q 604.7 0.001 590.4 0.001 A 36.929 36.929 0 0 0 582.802 0.741 A 24.068 24.068 0 0 0 568.65 9.101 A 28.178 28.178 0 0 0 564.399 16.362 Q 562.716 20.485 561.918 25.595 A 65.029 65.029 0 0 0 561.2 35.601 A 71.758 71.758 0 0 0 561.615 43.534 Q 562.959 55.598 568.65 62.701 A 23.74 23.74 0 0 0 581.565 70.952 Z M 590.4 68.001 A 26.625 26.625 0 0 0 601.683 65.782 Q 612.98 60.55 614.835 42.983 A 70.412 70.412 0 0 0 615.2 35.601 Q 615.2 19.701 609.05 11.851 Q 602.9 4.001 590.4 4.001 Q 580.183 4.001 574.208 9.246 A 19.264 19.264 0 0 0 571.75 11.851 Q 565.6 19.701 565.6 35.601 A 62.07 62.07 0 0 0 566.622 47.421 Q 570.634 68.001 590.4 68.001 Z M 423.5 46.701 L 461.5 46.701 A 187.758 187.758 0 0 0 454.145 27.047 A 170.292 170.292 0 0 0 452.95 24.401 A 138.345 138.345 0 0 0 447.256 13.348 A 108.614 108.614 0 0 0 442.5 5.801 A 111.931 111.931 0 0 0 436.437 15.673 A 142.609 142.609 0 0 0 432.05 24.401 A 183.095 183.095 0 0 0 424.443 43.772 A 203.025 203.025 0 0 0 423.5 46.701 Z" vector-effect="non-scaling-stroke"/></g></svg>